<svg width="83" height="25" viewBox="0 0 83 25" fill="none" xmlns="http://www.w3.org/2000/svg">
<g id="Group">
<path id="Vector" fill-rule="evenodd" clip-rule="evenodd" d="M51.4502 19.5838C46.6465 23.0825 39.6876 24.9999 33.6911 24.9999C25.2905 24.9999 17.7227 21.9163 12.0008 16.6663C11.5508 16.2504 11.9512 15.7499 12.4921 16.0832C18.6695 19.6664 26.3079 21.8336 34.1989 21.8336C39.5214 21.8336 45.371 20.75 50.7559 18.4175C51.564 18.0833 52.2436 18.9998 51.4502 19.5838Z" fill="white" fill-opacity="0.75"/>
<path id="Vector_2" fill-rule="evenodd" clip-rule="evenodd" d="M53.4491 17.2504C52.8338 16.5001 49.3893 16.917 47.8401 17.0833C47.3718 17.1659 47.2983 16.7499 47.7198 16.4166C50.4683 14.5001 54.9744 15.0832 55.4969 15.6663C56.0231 16.333 55.3582 20.9172 52.7815 23.0835C52.3848 23.4168 52.0101 23.1661 52.1846 22.7501C52.7659 21.3332 54.0634 18.0842 53.4491 17.2504Z" fill="white" fill-opacity="0.75"/>
<path id="Vector_3" fill-rule="evenodd" clip-rule="evenodd" d="M47.9465 2.75032V0.832901C47.9502 0.583122 48.1623 0.333344 48.424 0.333344H56.8311C57.0974 0.333344 57.3169 0.583122 57.3169 0.832901V2.49962C57.3132 2.75032 57.0855 3.08366 56.6833 3.66587L52.3287 9.91767C53.9467 9.83503 55.6557 10.0839 57.125 10.9177C57.4574 11.0839 57.5474 11.4173 57.5713 11.668V13.668C57.5713 13.9178 57.27 14.2511 56.9532 14.084C54.3645 12.7506 50.9328 12.5844 48.0705 14.084C47.7775 14.2511 47.4699 13.9178 47.4699 13.668V11.7506C47.4699 11.4173 47.4763 10.9177 47.784 10.5017L52.8301 3.16723H48.436C48.1651 3.16723 47.9493 3.00101 47.9465 2.75124V2.75032ZM64.577 2.83296C62.6917 2.83296 62.5714 5.41707 62.5714 7.00022C62.5714 8.58338 62.5475 12.083 64.5549 12.083C66.5385 12.083 66.6303 9.25007 66.6303 7.58335C66.6303 6.49975 66.5816 5.16637 66.2501 4.08369C65.9636 3.16631 65.3888 2.83296 64.577 2.83296ZM64.5549 0.166213C68.3531 0.166213 70.4045 3.41701 70.4045 7.58335C70.4045 11.5835 68.1373 14.7498 64.5549 14.7498C60.8312 14.7498 58.799 11.4999 58.799 7.41622C58.799 3.33344 60.8533 0.166213 64.5549 0.166213ZM43.827 14.5C43.6571 14.5827 43.3495 14.5827 43.2209 14.5C42.3476 13.8333 41.7535 12.8333 41.7535 12.8333C40.3485 14.2502 39.3558 14.6662 37.5385 14.6662C35.3851 14.6662 33.7091 13.3338 33.7091 10.667C33.7091 8.58246 34.835 7.16644 36.4365 6.49975C37.8231 5.83306 39.7644 5.75041 41.2466 5.58328C41.2466 5.58328 41.3687 4.00013 40.9353 3.41609C40.601 2.91653 40.0262 2.75032 39.5 2.75032C38.5495 2.75032 37.6331 3.24987 37.4521 4.24991C37.3998 4.49968 37.1904 4.75038 36.9682 4.75038L34.5182 4.49968C34.3308 4.41704 34.0755 4.24991 34.1371 3.91656C34.7092 0.916466 37.4246 0 39.8599 0C41.1052 0 42.7315 0.333344 43.7122 1.24981C44.9574 2.41606 44.8381 4.00013 44.8381 5.66685V9.66698C44.8381 10.9159 45.3358 11.4163 45.8032 12.083C45.9667 12.3337 46.0034 12.5835 45.794 12.7497C45.2715 13.1666 43.827 14.5 43.827 14.5ZM41.2466 8.16647C41.2466 9.16742 41.2714 10.0003 40.7691 10.9168C40.3641 11.667 39.7176 12.083 38.9986 12.083C38.0169 12.083 37.443 11.3337 37.443 10.2501C37.443 8.00026 39.398 7.66691 41.2466 7.66691V8.16647ZM10.2933 14.5C10.1244 14.5827 9.81306 14.5827 9.69093 14.5C8.81762 13.8333 8.22348 12.8333 8.22348 12.8333C6.81848 14.2502 5.82487 14.6662 4.00847 14.6662C1.85138 14.6662 0.176392 13.3338 0.176392 10.667C0.176392 8.58246 1.30223 7.16644 2.90375 6.49975C4.29039 5.83306 6.23076 5.75041 7.7129 5.58328C7.7129 5.58328 7.83596 4.00013 7.40252 3.41609C7.06458 2.91653 6.49248 2.75032 5.96629 2.75032C5.01677 2.75032 4.1003 3.24987 3.91848 4.24991C3.86613 4.49968 3.65768 4.75038 3.43637 4.75038L0.984498 4.49968C0.797164 4.41704 0.541876 4.24991 0.603403 3.91656C1.17551 0.916466 3.89093 0 6.32627 0C7.57149 0 9.19872 0.333344 10.1795 1.24981C11.4247 2.41606 11.3053 4.00013 11.3053 5.66685V9.66698C11.3053 10.9159 11.803 11.4163 12.2704 12.083C12.433 12.3337 12.4706 12.5835 12.2613 12.7497C11.7378 13.1666 10.2933 14.5 10.2933 14.5ZM7.7129 8.16647C7.7129 9.16742 7.7377 10.0003 7.23355 10.9168C6.82766 11.667 6.18209 12.083 5.46214 12.083C4.4814 12.083 3.90654 11.3337 3.90654 10.2501C3.90654 8.00026 5.86252 7.66691 7.71015 7.66691V8.16647H7.7129ZM17.7711 7.00022C17.7711 5.49972 17.7013 3.41701 19.5397 3.41701C21.3543 3.41701 21.1146 5.5842 21.1146 7.00022L21.1174 14.0004C21.1174 14.2502 21.3194 14.5 21.5756 14.5H24.1303C24.4049 14.5 24.6225 14.2502 24.6225 14.0004V7.00022C24.6225 6.24997 24.5987 5.16637 24.8631 4.49968C25.1267 3.833 25.7695 3.41609 26.3903 3.41609C27.1323 3.41609 27.7034 3.66678 27.8954 4.58325C28.0147 5.08373 27.9652 6.49975 27.9652 7.00022V14.0004C27.9652 14.2502 28.1672 14.5 28.4234 14.5H30.979C31.2527 14.5 31.4703 14.2502 31.4703 14.0004L31.474 5.66685C31.474 4.24991 31.6393 2.66675 30.8284 1.58315C30.1131 0.583122 28.9432 0.0835656 27.8669 0.0835656C26.3627 0.0835656 24.955 0.916466 24.3333 2.58319C23.617 0.916466 22.6151 0.0835656 21.0164 0.0835656C19.4415 0.0835656 18.2697 0.916466 17.648 2.58319H17.5994V0.916466C17.5994 0.583122 17.3836 0.41691 17.1218 0.41691H14.737C14.4725 0.41691 14.2595 0.583122 14.2595 0.916466V14.0004C14.2595 14.2502 14.4753 14.5 14.737 14.5H17.2917C17.5562 14.5 17.7692 14.2502 17.7692 14.0004L17.7711 7.00022ZM75.828 14.0004C75.828 14.2502 75.6122 14.5 75.3505 14.5H72.7958C72.5313 14.5 72.3183 14.2502 72.3183 14.0004V0.916466C72.3183 0.583122 72.5341 0.41691 72.7958 0.41691H75.1577C75.4332 0.41691 75.6343 0.666688 75.6343 0.750254V2.75032H75.6839C76.4001 1.00003 77.402 0.165295 79.1707 0.165295C80.3176 0.165295 81.4389 0.582204 82.1551 1.6658C82.8237 2.75032 82.8237 4.49968 82.8237 5.75041V14.0831C82.7961 14.3329 82.5867 14.5 82.3342 14.5H79.7703C79.5325 14.5 79.3424 14.3329 79.3148 14.0831L79.3185 6.08376C79.3185 3.41701 78.2992 3.41701 77.7133 3.41701C77.0301 3.41701 76.48 3.91656 76.2394 4.41704C75.8831 5.24994 75.8244 6.00019 75.8244 6.91666L75.828 14.0004Z" fill="white" fill-opacity="0.75"/>
</g>
</svg>
