<svg width="1414" height="1104" viewBox="0 0 1414 1104" fill="none" xmlns="http://www.w3.org/2000/svg">
<path d="M637.058 335.726C911.74 202.165 1114.6 198.7 1089.98 327.86C1070.31 431.225 876.254 601.583 656.486 708.394C502.682 783.153 384.114 794.199 367.326 740.455C364.878 732.835 364.69 723.716 366.588 713.46M783.46 258.897C1044.23 160.198 1182.99 207.839 1093.6 365.143C1021.99 491.029 794.662 657.184 586.08 736.071C439.915 791.426 353.766 774.912 372.81 702.491C375.456 692.163 380.36 680.657 387.578 668.065M925.586 199.179C1157.42 140.953 1224.22 236.886 1074.88 413.298C955.278 554.48 708.131 706.612 522.697 753.121C392.841 785.722 343.817 742.871 397.668 655.959C405.402 643.564 415.161 630.259 427.173 616.097M1055.34 159.889C1244.68 145.587 1235.55 284.261 1035.06 469.474C874.696 617.618 621.872 747.025 470.264 758.5C364.277 766.436 355.402 699.615 440.839 603.351C453.077 589.561 467.163 575.222 483.154 560.43M1165.05 143.394C1300.89 173.83 1216.44 347.108 976.377 530.476C784.371 677.116 540.514 776.252 431.892 751.785C355.879 734.663 387.688 647.687 499.756 547.622C515.683 533.378 533.397 518.813 552.61 504.103M1248.37 150.674C1322.89 224.091 1167.96 421.976 902.367 592.685C689.926 729.18 469.373 792.278 409.878 733.492C368.086 692.431 438.853 590.293 570.985 492.257C589.845 478.271 610.086 464.276 631.185 450.714M1300.46 181.285C1309.3 293.401 1092.92 504.356 817.217 652.545C596.629 771.06 412.198 794.42 405.246 704.657C400.24 641.92 505.698 530.647 650.408 440.264C671.098 427.333 692.472 414.878 714.589 402.991M1318.42 233.364C1260.83 377.749 995.639 589.596 725.917 706.522C510.034 800.151 372.388 782.4 418.555 666.849C450.756 586.066 584.733 472.14 733.385 394.774C754.629 383.735 776.269 373.348 797.781 364.056M1301.06 303.997C1180.76 472.09 881.917 672.581 633.909 751.504C435.283 814.801 352.409 757.016 448.858 622.427C516.315 528.219 671.14 418.266 815.167 358.414C835.751 349.877 856.151 342.343 875.904 336.028M1249.59 388.955C1073.25 571.173 758.491 748.399 546.347 784.875C376.585 814.11 353.456 719.579 494.46 573.82C593.081 471.851 759.879 372.146 890.841 333.208C909.492 327.69 927.613 323.257 944.508 320.395M1166.65 483.451C944.805 669.075 632.139 812.875 468.256 804.798C337.221 798.255 374.866 672.591 552.447 524.067C676.644 420.148 845.509 336.572 955.898 320.873C971.751 318.58 986.321 317.765 999.379 318.377M1057.36 581.892C802.851 760.078 510.327 862.309 404.546 809.886C319.828 767.991 416.153 618.515 619.914 475.887C762.483 376.106 923.518 313.579 1007.05 321.872C1018.9 323.094 1029.23 325.742 1037.87 329.858M927.836 678.667C655.273 839.212 400.284 893.589 358.38 800.13C324.845 725.344 474.519 560.573 692.628 432.102C845.332 342.155 989.406 304.242 1040.97 336.259C1048.46 340.757 1053.74 346.847 1057.11 354.354M785.843 767.974C511.16 901.535 308.302 905 332.921 775.84C352.594 672.474 546.646 502.117 766.415 395.306C920.218 320.547 1038.79 309.501 1055.57 363.245C1058.02 370.865 1058.21 379.984 1056.31 390.24M639.614 844.761C378.842 943.461 239.97 895.954 329.477 738.516C401.082 612.63 628.412 446.474 836.994 367.587C983.159 312.233 1069.31 328.746 1050.26 401.167C1047.62 411.496 1042.71 423.002 1035.5 435.594M497.371 904.614C265.534 962.84 198.736 866.907 348.079 690.495C467.68 549.313 714.826 397.181 900.26 350.672C1030.12 318.071 1079.14 360.922 1025.29 447.834C1017.56 460.229 1007.8 473.534 995.784 487.696M367.614 943.904C178.276 958.206 187.403 819.532 387.893 634.319C548.261 486.175 801.085 356.768 952.694 345.293C1058.68 337.357 1067.55 404.179 982.119 500.442C969.88 514.233 955.794 528.571 939.803 543.363M257.906 960.399C122.069 929.963 206.514 756.685 446.58 573.317C638.587 426.677 882.443 327.541 991.066 352.008C1067.08 369.13 1035.27 456.106 923.202 556.171C907.275 570.415 889.56 584.98 870.347 599.69M174.418 953.16C99.8896 879.744 254.821 681.859 520.417 511.15C732.859 374.655 953.411 311.557 1012.91 370.342C1054.7 411.404 983.931 513.542 851.799 611.577C832.939 625.563 812.699 639.559 791.599 653.12M122.324 922.55C113.489 810.434 329.86 599.479 605.567 451.289C826.155 332.775 1010.59 309.415 1017.54 399.178C1022.54 461.915 917.086 573.188 772.376 663.57C751.687 676.501 730.312 688.957 708.195 700.843M104.366 870.47C161.959 726.086 427.146 514.238 696.868 397.312C912.75 303.683 1050.4 321.434 1004.23 436.985C972.028 517.769 838.052 631.695 689.399 709.06C668.155 720.099 646.515 730.486 625.003 739.778M121.721 799.837C242.022 631.744 540.75 431.388 789.048 352.289C987.675 288.992 1070.55 346.777 974.099 481.366C906.642 575.575 751.817 685.527 607.79 745.379C587.206 753.916 566.807 761.45 547.054 767.765M173.364 714.838C349.705 532.62 664.467 355.394 876.727 318.783C1046.49 289.548 1069.62 384.08 928.614 529.838C829.993 631.807 663.195 731.512 532.233 770.451C513.582 775.969 495.461 780.402 478.566 783.263M256.133 620.384C478.153 434.718 790.935 290.784 954.528 299.037C1085.56 305.579 1047.92 431.243 870.337 579.767C746.14 683.686 577.275 767.262 466.886 782.962C451.033 785.255 436.463 786.069 423.405 785.458M365.71 521.766C620.223 343.581 912.747 241.35 1018.53 293.773C1103.25 335.668 1006.92 485.144 803.16 627.771C660.591 727.552 499.556 790.08 416.021 781.786C404.178 780.565 393.848 777.916 385.203 773.8M494.949 425.168C767.512 264.623 1022.5 210.245 1064.4 303.705C1097.94 378.491 948.265 543.261 730.157 671.732C577.452 761.679 433.379 799.592 381.818 767.576C374.328 763.077 369.043 756.987 365.672 749.48" stroke="url(#paint0_radial_1_278)" stroke-opacity="0.7" stroke-miterlimit="10" stroke-linecap="round"/>
<g filter="url(#filter0_f_1_278)">
<ellipse cx="711.36" cy="548.041" rx="335.711" ry="91.858" transform="rotate(-31.242 711.36 548.041)" fill="#B35AEA" fill-opacity="0.25"/>
</g>
<g filter="url(#filter1_f_1_278)">
<circle cx="523.702" cy="597.559" r="3.21116" transform="rotate(-32.9889 523.702 597.559)" fill="#7515A2"/>
<circle cx="593.613" cy="528.775" r="3.21116" transform="rotate(-32.9889 593.613 528.775)" fill="#7515A2"/>
<circle cx="684.949" cy="529.903" r="3.21116" transform="rotate(-32.9889 684.949 529.903)" fill="#7515A2"/>
<circle cx="776.284" cy="528.775" r="3.21116" transform="rotate(-32.9889 776.284 528.775)" fill="#7515A2"/>
<circle cx="675.928" cy="472.395" r="3.21116" transform="rotate(-32.9889 675.928 472.395)" fill="#7515A2"/>
<ellipse cx="769.66" cy="428.664" rx="2.89621" ry="3.21116" transform="rotate(-32.9889 769.66 428.664)" fill="#7515A2"/>
<circle cx="833.792" cy="565.986" r="3.21116" transform="rotate(-32.9889 833.792 565.986)" fill="#7515A2"/>
<circle cx="647.738" cy="588.538" r="3.21116" transform="rotate(-32.9889 647.738 588.538)" fill="#7515A2"/>
<circle cx="690.587" cy="657.321" r="3.21116" transform="rotate(-32.9889 690.587 657.321)" fill="#7515A2"/>
<circle cx="820.26" cy="466.757" r="3.21116" transform="rotate(-32.9889 820.26 466.757)" fill="#7515A2"/>
<circle cx="887.916" cy="512.989" r="3.21116" transform="rotate(-32.9889 887.916 512.989)" fill="#7515A2"/>
<circle cx="954.444" cy="402.484" r="3.21116" transform="rotate(-32.9889 954.444 402.484)" fill="#7515A2"/>
<circle cx="878.895" cy="427.291" r="3.21116" transform="rotate(-32.9889 878.895 427.291)" fill="#7515A2"/>
<circle cx="467.323" cy="699.042" r="3.21116" transform="rotate(-32.9889 467.323 699.042)" fill="#7515A2"/>
<circle cx="574.444" cy="699.042" r="3.21116" transform="rotate(-32.9889 574.444 699.042)" fill="#7515A2"/>
<circle cx="578.956" cy="632.514" r="3.21116" transform="rotate(-32.9889 578.956 632.514)" fill="#7515A2"/>
<circle cx="748.094" cy="606.579" r="3.21116" transform="rotate(-32.9889 748.094 606.579)" fill="#7515A2"/>
</g>
<defs>
<filter id="filter0_f_1_278" x="300.359" y="236.983" width="822" height="622.116" filterUnits="userSpaceOnUse" color-interpolation-filters="sRGB">
<feFlood flood-opacity="0" result="BackgroundImageFix"/>
<feBlend mode="normal" in="SourceGraphic" in2="BackgroundImageFix" result="shape"/>
<feGaussianBlur stdDeviation="60" result="effect1_foregroundBlur_1_278"/>
</filter>
<filter id="filter1_f_1_278" x="459.514" y="394.675" width="502.739" height="312.176" filterUnits="userSpaceOnUse" color-interpolation-filters="sRGB">
<feFlood flood-opacity="0" result="BackgroundImageFix"/>
<feBlend mode="normal" in="SourceGraphic" in2="BackgroundImageFix" result="shape"/>
<feGaussianBlur stdDeviation="2.29864" result="effect1_foregroundBlur_1_278"/>
</filter>
<radialGradient id="paint0_radial_1_278" cx="0" cy="0" r="1" gradientUnits="userSpaceOnUse" gradientTransform="translate(711.378 551.894) rotate(58.758) scale(223.367 695.874)">
<stop offset="0.489583" stop-color="#B35AEA"/>
<stop offset="1" stop-color="#D87D7D" stop-opacity="0.06"/>
</radialGradient>
</defs>
</svg>
