<svg width="63" height="51" viewBox="0 0 63 51" fill="none" xmlns="http://www.w3.org/2000/svg">
<g id="Group 55">
<path id="Vector" d="M38.3374 10.2876C35.1128 7.09837 30.0877 6.61585 26.3217 9.13432C24.4976 10.3583 23.1442 12.1706 22.5087 14.2654C21.8732 16.3602 21.9909 18.6198 22.8265 20.644C23.6738 22.6681 25.192 24.3393 27.1338 25.3749C29.0756 26.4105 31.3234 26.7401 33.477 26.3046C35.6306 25.881 37.5725 24.7159 38.9729 23.0212C40.3734 21.3265 41.1266 19.1964 41.1266 17.0075C41.1266 14.489 40.1262 12.0765 38.3374 10.2876ZM37.4548 22.8564C35.8896 24.4099 33.7712 25.2808 31.5705 25.2808C29.3698 25.2808 27.2514 24.4099 25.6862 22.8564C24.5211 21.7031 23.7327 20.2203 23.4031 18.608C23.0854 16.9957 23.2501 15.3363 23.8739 13.8182C24.5094 12.3001 25.5685 11.0055 26.9455 10.0993C29.7464 8.23992 33.3946 8.23992 36.1955 10.0993C37.5607 11.0055 38.6316 12.3001 39.2671 13.8182C39.9026 15.3363 40.0674 16.9957 39.7379 18.608C39.4083 20.2203 38.6199 21.6914 37.4548 22.8564Z" fill="white" fill-opacity="0.75"/>
<path id="Vector_2" d="M30.5226 23.6333C29.4987 23.4803 28.5337 23.0684 27.7099 22.4329C26.6272 21.5503 25.8034 20.3969 25.3327 19.0789C25.1679 18.6317 25.0267 18.1727 24.9208 17.702C24.8855 17.5254 24.8619 17.396 24.8384 17.3018C24.8384 17.2548 24.8266 17.2194 24.8266 17.1959V17.1606L24.0852 17.243C24.2617 18.4081 24.6383 19.5378 25.2032 20.5852C25.7093 21.5267 26.4036 22.3623 27.2392 23.0331C28.2866 23.8334 29.5458 24.3159 30.8521 24.4453L31.264 24.4924V9.95825H30.5108L30.5226 23.6333ZM38.6429 17.3842V16.631H32.6645V9.97002H31.9113V24.4924L32.3232 24.4571C33.2882 24.3276 34.2297 23.9981 35.077 23.5156C35.9244 23.0449 36.6658 22.4211 37.2895 21.6797C38.0898 20.7147 38.6664 19.5849 38.9959 18.3728L38.2781 18.1727C37.9721 19.2789 37.4425 20.3146 36.7129 21.1972C35.6655 22.4329 34.2415 23.292 32.6645 23.6333V17.396L38.6429 17.3842Z" fill="white" fill-opacity="0.75"/>
<g id="Group 63">
<path id="Vector_3" d="M1.66626 50.9831H0.701241V42.1214H1.66626V50.9831ZM1.66626 39.497C1.79571 39.6264 1.8781 39.7912 1.8781 39.9795C1.8781 40.1678 1.80748 40.3443 1.66626 40.462C1.4662 40.6621 1.17198 40.7209 0.924844 40.615C0.842465 40.5797 0.771852 40.5326 0.701241 40.462C0.571787 40.3326 0.489408 40.156 0.501176 39.9795C0.501176 39.7088 0.665936 39.4617 0.924844 39.3558C1.16022 39.2499 1.45443 39.3087 1.66626 39.497ZM4.57309 45.2753C4.57309 45.5107 4.58486 45.7579 4.62017 45.9932C4.6437 46.1815 4.70255 46.3698 4.78492 46.5346C4.8673 46.6993 5.00853 46.8288 5.17329 46.9112C5.60872 47.0995 6.103 47.0995 6.53844 46.9112C6.7032 46.8288 6.84442 46.6993 6.9268 46.5346C7.00918 46.3698 7.06802 46.1815 7.09156 45.9932C7.12687 45.7579 7.13863 45.5225 7.13863 45.2753V42.1096H8.10366V45.393C8.13896 46.0638 7.96243 46.7229 7.57407 47.276C7.22101 47.7232 6.64435 47.9468 5.84409 47.9468C5.04383 47.9468 4.46717 47.7232 4.11412 47.276C3.73752 46.7229 3.54923 46.0638 3.58453 45.393V42.1214H4.54955V45.2753H4.57309ZM10.728 42.7333H10.7516C10.8928 42.498 11.0929 42.2979 11.34 42.1567C11.5754 42.0155 11.8461 41.9448 12.1285 41.9566C12.7875 41.9566 13.3995 42.3214 13.7055 42.8981C13.8585 42.5921 14.1056 42.345 14.4116 42.2038C14.7176 42.039 15.0589 41.9566 15.4119 41.9566C15.7179 41.9448 16.0121 42.0155 16.2828 42.1567C16.5182 42.2744 16.7065 42.4627 16.8477 42.6863C16.9889 42.9216 17.0831 43.1688 17.1419 43.4395C17.2007 43.7337 17.2243 44.0397 17.2243 44.3456V47.7938H16.271V44.5104C16.271 44.2986 16.2593 44.0985 16.2475 43.8867C16.2239 43.7101 16.1886 43.5454 16.118 43.3924C16.0592 43.2394 15.9415 43.0982 15.8003 43.0158C15.6238 42.9099 15.4355 42.8628 15.2354 42.8746C15.0118 42.8628 14.7764 42.9216 14.5881 43.0393C14.4234 43.157 14.2939 43.31 14.2115 43.4865C14.1291 43.6748 14.0703 43.8867 14.0468 44.0867C14.0115 44.3221 13.9997 44.5575 13.9997 44.7928V47.7938H13.0464V44.5692C13.0464 44.3692 13.0347 44.1573 13.0229 43.9573C12.9994 43.769 12.9641 43.5924 12.8935 43.4159C12.8346 43.2512 12.7169 43.1099 12.5757 43.004C12.4227 42.8981 12.2344 42.8393 12.0343 42.851C11.799 42.8393 11.5636 42.9099 11.3753 43.0393C11.1988 43.157 11.0693 43.3218 10.9869 43.5101C10.9046 43.7101 10.8457 43.922 10.8222 44.1338C10.7869 44.3692 10.7751 44.6163 10.7751 44.8517V47.782H9.78656V42.1096H10.7516L10.728 42.7333ZM21.0255 43.0158C20.8019 43.1217 20.6018 43.2747 20.4489 43.463C20.1076 43.8631 19.931 44.3692 19.9428 44.887C19.931 45.4401 20.1076 45.9815 20.4489 46.4169C20.7784 46.8406 21.2844 47.0759 21.814 47.0524C22.3554 47.0759 22.8732 46.8523 23.2145 46.4287C23.5557 45.9932 23.7323 45.4519 23.7205 44.8988C23.744 44.3574 23.5557 43.8396 23.2027 43.4395C22.626 42.8628 21.7669 42.698 21.0255 43.0158ZM19.9899 42.9334H20.0017C20.2253 42.6274 20.5312 42.3803 20.8725 42.2155C21.2138 42.0508 21.5904 41.9684 21.9788 41.9684C22.7437 41.9566 23.4616 42.2979 23.9559 42.8746C24.1912 43.157 24.3795 43.4865 24.509 43.8396C24.6385 44.2044 24.7091 44.5928 24.7091 44.9694C24.7091 45.3577 24.6502 45.7461 24.5208 46.1109C24.4031 46.464 24.2148 46.7935 23.9794 47.0759C23.744 47.3584 23.4381 47.5702 23.1085 47.7232C22.7555 47.8762 22.3671 47.9586 21.967 47.9468C21.5904 47.9468 21.2138 47.8644 20.8725 47.6997C20.5312 47.5349 20.237 47.2995 20.0134 46.9936H19.9781V50.9713H19.0131V42.1096H19.9781L19.9899 42.9334Z" fill="white" fill-opacity="0.75"/>
<path id="Vector_4" d="M27.6746 47.794H26.7096V43.016H26.1212V42.1216H26.7096V40.0738H27.6746V42.1216H28.6867V43.016H27.6746V47.794ZM31.0875 42.7335H31.111C31.264 42.5099 31.4641 42.3216 31.6759 42.1569C31.8877 42.0156 32.1231 41.9568 32.3702 41.9686C32.6762 41.9803 32.9822 42.0745 33.2411 42.2393L32.7821 43.1101L32.7115 43.0631C32.6292 43.0042 32.5468 42.9454 32.4526 42.9101C32.3702 42.8748 32.2879 42.863 32.1937 42.863C31.9701 42.8512 31.7583 42.9218 31.5818 43.0631C31.4288 43.2043 31.3111 43.3926 31.2405 43.5926C31.1699 43.8045 31.1228 44.0163 31.0992 44.2399C31.0757 44.4753 31.0639 44.7106 31.0757 44.9578V47.794H30.1107V42.1216H31.0757L31.0875 42.7335ZM35.8302 43.016C35.6066 43.1219 35.4065 43.2749 35.2418 43.4632C34.9005 43.8633 34.724 44.3694 34.7357 44.8872C34.724 45.4403 34.9005 45.9816 35.23 46.4171C35.5595 46.829 36.0656 47.0644 36.5952 47.0526C37.1365 47.0761 37.6543 46.8525 37.9956 46.4289C38.3369 45.9934 38.5134 45.4521 38.5017 44.8989C38.5252 44.3576 38.3369 43.8398 37.9838 43.4396C37.4307 42.863 36.5716 42.6982 35.8302 43.016ZM39.4314 47.794H38.4546V46.9937H38.431C37.9721 47.6057 37.2424 47.9588 36.4657 47.9352C36.0773 47.9352 35.7007 47.8646 35.3477 47.6999C35.0064 47.5469 34.7122 47.3233 34.4768 47.0408C34.2414 46.7584 34.0532 46.4289 33.9237 46.0758C33.7942 45.711 33.7354 45.3344 33.7354 44.946C33.7354 44.5459 33.7942 44.1575 33.9237 43.7809C34.0414 43.4279 34.2297 43.1101 34.4651 42.8159C34.7004 42.5335 35.0064 42.3099 35.3359 42.1686C35.689 42.0039 36.0773 41.9215 36.4775 41.9333C36.8541 41.9333 37.2307 42.0156 37.5719 42.1922C37.9132 42.3569 38.2192 42.6041 38.4428 42.8983H38.4664V42.0863H39.4314V47.794ZM42.8207 43.016C42.5971 43.1219 42.397 43.2749 42.2441 43.4632C41.9028 43.8633 41.7262 44.3694 41.738 44.8872C41.7262 45.4403 41.9028 45.9816 42.2441 46.4171C42.5736 46.829 43.0679 47.0644 43.5974 47.0526C44.1388 47.0761 44.6566 46.8525 44.9979 46.4289C45.3392 45.9934 45.5157 45.4521 45.5039 44.8989C45.5275 44.3576 45.3392 43.8398 44.9861 43.4396C44.4095 42.863 43.5504 42.6982 42.8207 43.016ZM45.4451 47.0055H45.4216C45.198 47.2997 44.9037 47.5469 44.5625 47.6999C44.2212 47.8646 43.8446 47.947 43.4562 47.947C43.0679 47.947 42.6913 47.8764 42.3382 47.7116C41.9969 47.5586 41.7027 47.335 41.4673 47.0526C41.232 46.7701 41.0437 46.4406 40.9142 46.0876C40.7848 45.7227 40.7141 45.3461 40.7141 44.9578C40.7141 44.5577 40.773 44.1693 40.9024 43.7927C41.0201 43.4396 41.2084 43.1101 41.4438 42.8277C41.6792 42.5452 41.9851 42.3216 42.3147 42.1804C42.6677 42.0157 43.0561 41.9333 43.4562 41.945C43.8328 41.945 44.2094 42.0274 44.5507 42.2039C44.892 42.3687 45.1862 42.6158 45.398 42.9101H45.4216V37.826H46.3866V47.7822H45.4216V47.0055C45.4451 46.9937 45.4451 47.0055 45.4451 47.0055ZM49.0463 47.794H48.0813V42.1216H49.0463V47.794ZM49.0463 39.4972C49.1757 39.6266 49.2581 39.7914 49.2581 39.9797C49.2581 40.168 49.1875 40.3445 49.0463 40.4622C48.7756 40.7329 48.3402 40.7329 48.0813 40.4622C47.9518 40.3327 47.8694 40.1562 47.8812 39.9797C47.8812 39.709 48.0459 39.4619 48.3049 39.356C48.552 39.25 48.8462 39.3089 49.0463 39.4972ZM51.9178 42.8041H51.9413C52.3062 42.2628 52.9181 41.945 53.5654 41.9568C53.8949 41.945 54.2244 42.0156 54.5186 42.1569C54.7658 42.2746 54.9658 42.4511 55.1188 42.6865C55.2718 42.9218 55.366 43.1807 55.4131 43.4632C55.4719 43.7809 55.4954 44.1104 55.4954 44.44V47.8058H54.5304V44.6165C54.5304 44.3811 54.5186 44.1458 54.4951 43.9222C54.4716 43.7339 54.4245 43.5573 54.3421 43.3926C54.2597 43.2278 54.1421 43.0984 53.9773 43.016C53.7772 42.9218 53.5536 42.8748 53.33 42.8865C53.0593 42.8748 52.8004 42.9454 52.5651 43.0866C52.3768 43.216 52.2238 43.3926 52.1296 43.6044C52.0355 43.8162 51.9766 44.0516 51.9531 44.287C51.9178 44.5694 51.906 44.8519 51.906 45.1343V47.8293H50.941V42.1451H51.906V42.8394L51.9178 42.8041ZM58.8965 43.016C58.6729 43.1219 58.4729 43.2749 58.3199 43.4632C57.9786 43.8633 57.8021 44.3694 57.8138 44.8872C57.8021 45.4403 57.9786 45.9816 58.3199 46.4171C58.6494 46.829 59.1555 47.0644 59.685 47.0526C60.2264 47.0761 60.7442 46.8525 61.0855 46.4289C61.4268 45.9934 61.6033 45.4521 61.5915 44.8989C61.6033 44.3576 61.4268 43.8398 61.0737 43.4396C60.7207 43.0513 60.2029 42.8394 59.6733 42.863C59.3908 42.863 59.1437 42.9101 58.8965 43.016ZM62.4977 47.5233C62.5095 47.9941 62.4742 48.4648 62.4036 48.9356C62.227 49.724 61.6857 50.3831 60.9443 50.7126C60.5559 50.8891 60.1322 50.9715 59.7086 50.9715C58.9789 50.995 58.261 50.7479 57.7197 50.2536C57.1901 49.7711 56.8959 49.0768 56.9077 48.3589H57.8727C57.8609 48.8296 58.0492 49.2768 58.3905 49.6064C58.7436 49.9241 59.2143 50.0889 59.685 50.0771C60.0028 50.0889 60.3088 50.03 60.5912 49.8888C60.8266 49.7829 61.0149 49.6064 61.1561 49.3828C61.2973 49.1474 61.3915 48.9002 61.4385 48.6296C61.4974 48.3236 61.5209 48.0058 61.5209 47.6881V46.9937H61.4974C61.262 47.288 60.9678 47.5233 60.6265 47.6763C60.2852 47.8411 59.9086 47.9352 59.5203 47.9352C58.7671 47.947 58.0374 47.6175 57.5432 47.0526C57.296 46.7701 57.1077 46.4524 56.99 46.0993C56.7429 45.3579 56.7429 44.5577 56.99 43.828C57.1195 43.4749 57.3078 43.1454 57.5549 42.863C58.0492 42.2746 58.7906 41.945 59.5556 41.9568C59.9322 41.9568 60.3088 42.0392 60.6501 42.2157C60.9796 42.3805 61.2738 42.6276 61.4974 42.9218H61.5209V42.1098H62.486V47.5116L62.4977 47.5233Z" fill="white" fill-opacity="0.75"/>
</g>
<path id="Vector_5" d="M47.8225 17.3489H46.681C46.6927 20.8323 45.4806 24.1981 43.2681 26.8931C41.0556 29.5881 37.9723 31.4358 34.5594 32.1184C31.1347 32.801 27.5806 32.2831 24.4973 30.6473C21.4139 29.0115 19.0014 26.3636 17.6598 23.1507C16.3181 19.9379 16.1416 16.3603 17.1537 13.0298C18.1658 9.69931 20.3077 6.81602 23.2027 4.88598C29.1929 0.89644 37.1485 1.67316 42.256 6.74541C43.6565 8.13409 44.7745 9.78169 45.5394 11.6058C46.3044 13.4299 46.6927 15.3835 46.681 17.3489H48.9523C48.9641 13.3476 47.5754 9.46394 45.0334 6.36881C42.4914 3.26192 38.949 1.14358 35.0066 0.355087C31.0641 -0.433405 26.9804 0.16679 23.4263 2.04976C19.884 3.93272 17.1066 6.98078 15.5532 10.6761C14.0115 14.3714 13.7997 18.4904 14.9648 22.3152C16.1298 26.1517 18.5895 29.4587 21.92 31.6829C28.8046 36.2727 37.9722 35.39 43.8448 29.5528C45.457 27.9523 46.7398 26.0576 47.6225 23.9628C48.4933 21.868 48.9405 19.6202 48.9405 17.3489H47.8225Z" fill="white" fill-opacity="0.75"/>
</g>
</svg>
