<svg width="203" height="40" viewBox="0 0 203 40" fill="none" xmlns="http://www.w3.org/2000/svg">
<path d="M198.604 27.9519C197.273 27.9519 196.151 27.6229 195.239 26.9649C194.342 26.3069 193.863 25.4246 193.803 24.318H196.36C196.54 25.4246 197.31 25.9779 198.671 25.9779C199.224 25.9779 199.665 25.8807 199.994 25.6863C200.323 25.4769 200.488 25.1779 200.488 24.789C200.488 24.4002 200.361 24.0937 200.106 23.8694C199.852 23.6451 199.426 23.4581 198.828 23.3086L196.989 22.8151C195.074 22.3067 194.117 21.1776 194.117 19.428C194.117 18.4859 194.499 17.7307 195.261 17.1624C196.024 16.5792 197.033 16.2876 198.29 16.2876C199.501 16.2876 200.495 16.5942 201.273 17.2073C202.051 17.8204 202.484 18.6354 202.574 19.6523H200.106C199.867 18.7251 199.254 18.2615 198.267 18.2615C197.774 18.2615 197.377 18.3662 197.078 18.5756C196.779 18.77 196.63 19.0466 196.63 19.4055C196.63 20.0486 197.131 20.4972 198.133 20.7514L200.017 21.2449C202.006 21.7534 203 22.8824 203 24.632C203 25.6938 202.589 26.5163 201.766 27.0995C200.959 27.6677 199.905 27.9519 198.604 27.9519Z" fill="black"/>
<path d="M187.41 27.9517C186.647 27.9517 185.937 27.7872 185.279 27.4582C184.636 27.1143 184.142 26.703 183.798 26.2245V27.7274H181.331V10.9039H183.798V18.0146C184.142 17.5361 184.636 17.1323 185.279 16.8034C185.937 16.4594 186.647 16.2874 187.41 16.2874C188.935 16.2874 190.214 16.8557 191.245 17.9922C192.292 19.1287 192.816 20.5045 192.816 22.1196C192.816 23.7346 192.292 25.1104 191.245 26.2469C190.214 27.3834 188.935 27.9517 187.41 27.9517ZM186.961 25.7086C187.933 25.7086 188.733 25.3646 189.361 24.6767C189.989 23.9888 190.303 23.1365 190.303 22.1196C190.303 21.1027 189.989 20.2503 189.361 19.5624C188.733 18.8745 187.933 18.5306 186.961 18.5306C185.974 18.5306 185.167 18.8745 184.538 19.5624C183.91 20.2503 183.596 21.1027 183.596 22.1196C183.596 23.1365 183.91 23.9888 184.538 24.6767C185.167 25.3646 185.974 25.7086 186.961 25.7086Z" fill="black"/>
<path d="M172.605 27.9519C171.079 27.9519 169.793 27.3836 168.746 26.2471C167.715 25.1106 167.199 23.7348 167.199 22.1197C167.199 20.5047 167.715 19.1289 168.746 17.9924C169.793 16.8559 171.079 16.2876 172.605 16.2876C173.367 16.2876 174.07 16.4596 174.713 16.8035C175.356 17.1325 175.85 17.5363 176.194 18.0148V16.5119H178.661V27.7275H176.194V26.2247C175.85 26.7032 175.356 27.1144 174.713 27.4584C174.07 27.7874 173.367 27.9519 172.605 27.9519ZM170.653 24.6769C171.281 25.3648 172.081 25.7087 173.053 25.7087C174.025 25.7087 174.825 25.3648 175.453 24.6769C176.081 23.989 176.396 23.1366 176.396 22.1197C176.396 21.1028 176.081 20.2505 175.453 19.5626C174.825 18.8747 174.025 18.5307 173.053 18.5307C172.081 18.5307 171.281 18.8747 170.653 19.5626C170.025 20.2505 169.711 21.1028 169.711 22.1197C169.711 23.1366 170.025 23.989 170.653 24.6769Z" fill="black"/>
<path d="M156.944 27.7275V11.8013H159.569V25.2152H166.859V27.7275H156.944Z" fill="black"/>
<path d="M144.555 27.9519C142.88 27.9519 141.505 27.406 140.428 26.3144C139.351 25.2078 138.813 23.8096 138.813 22.1197C138.813 20.4299 139.344 19.0392 140.406 17.9475C141.467 16.8409 142.858 16.2876 144.578 16.2876C146.312 16.2876 147.711 16.8932 148.772 18.1045C149.834 19.3009 150.305 20.8411 150.186 22.7254H141.258C141.288 23.5927 141.617 24.318 142.245 24.9012C142.873 25.4844 143.673 25.776 144.645 25.776C146.021 25.776 146.963 25.2526 147.471 24.2058H150.051C149.707 25.2975 149.049 26.1947 148.077 26.8976C147.105 27.6004 145.931 27.9519 144.555 27.9519ZM144.51 18.3513C143.703 18.3513 143.008 18.5831 142.424 19.0466C141.856 19.4953 141.49 20.1383 141.325 20.9757H147.539C147.359 20.1084 146.993 19.4579 146.44 19.0242C145.886 18.5756 145.243 18.3513 144.51 18.3513Z" fill="black"/>
<path d="M134.488 27.7274V10.9039H136.955V27.7274H134.488Z" fill="black"/>
<path d="M130.974 26.2695C129.853 27.3911 128.462 27.9519 126.802 27.9519C125.142 27.9519 123.744 27.3911 122.608 26.2695C121.486 25.133 120.925 23.7497 120.925 22.1197C120.925 20.4897 121.486 19.1139 122.608 17.9924C123.744 16.8559 125.142 16.2876 126.802 16.2876C128.462 16.2876 129.853 16.8559 130.974 17.9924C132.111 19.1139 132.679 20.4897 132.679 22.1197C132.679 23.7497 132.111 25.133 130.974 26.2695ZM126.802 25.6639C127.774 25.6639 128.574 25.3274 129.202 24.6545C129.845 23.9666 130.167 23.1217 130.167 22.1197C130.167 21.1178 129.845 20.2804 129.202 19.6074C128.574 18.9195 127.774 18.5756 126.802 18.5756C125.815 18.5756 125 18.9195 124.357 19.6074C123.729 20.2804 123.415 21.1178 123.415 22.1197C123.415 23.1217 123.729 23.9666 124.357 24.6545C125 25.3274 125.815 25.6639 126.802 25.6639Z" fill="black"/>
<path d="M111.554 27.7274H109.087V10.9039H111.554V18.0371C112.257 16.8706 113.394 16.2874 114.964 16.2874C116.265 16.2874 117.304 16.7136 118.082 17.566C118.859 18.4184 119.248 19.5549 119.248 20.9756V27.7274H116.781V21.3793C116.781 20.4821 116.572 19.7867 116.153 19.2932C115.734 18.7848 115.166 18.5306 114.448 18.5306C113.596 18.5306 112.9 18.8521 112.362 19.4951C111.824 20.1381 111.554 21.0429 111.554 22.2093V27.7274Z" fill="black"/>
<path d="M104.137 27.7275V21.4244C104.137 20.5122 103.965 19.8018 103.621 19.2934C103.292 18.7849 102.798 18.5307 102.14 18.5307C101.348 18.5307 100.712 18.8373 100.234 19.4504C99.7552 20.0635 99.501 20.9234 99.4711 22.03V27.7275H97.0036V21.4244C97.0036 20.5122 96.8317 19.8018 96.4877 19.2934C96.1587 18.7849 95.6652 18.5307 95.0072 18.5307C94.1848 18.5307 93.5268 18.8522 93.0333 19.4953C92.5548 20.1383 92.3155 21.043 92.3155 22.2095V27.7275H89.8481V16.5119H92.3155V18.0372C93.0034 16.8708 94.0651 16.2876 95.5007 16.2876C97.1906 16.2876 98.3495 17.0278 98.9776 18.5083C99.2916 17.8054 99.7702 17.2596 100.413 16.8708C101.071 16.482 101.789 16.2876 102.567 16.2876C103.823 16.2876 104.81 16.7138 105.528 17.5662C106.245 18.4186 106.604 19.57 106.604 21.0206V27.7275H104.137Z" fill="black"/>
<path d="M81.9997 27.7274V16.5118H84.4672V18.5082C84.6765 17.8801 85.0579 17.3717 85.6112 16.9829C86.1794 16.5941 86.7851 16.3997 87.4281 16.3997C87.8169 16.3997 88.1384 16.4296 88.3927 16.4894V19.0241C88.0338 18.8895 87.6225 18.8222 87.1589 18.8222C86.4112 18.8222 85.7757 19.1288 85.2523 19.7419C84.7289 20.3401 84.4672 21.1775 84.4672 22.2542V27.7274H81.9997Z" fill="black"/>
<path d="M78.486 26.2695C77.3644 27.3911 75.9737 27.9519 74.3137 27.9519C72.6538 27.9519 71.2556 27.3911 70.1191 26.2695C68.9975 25.133 68.4367 23.7497 68.4367 22.1197C68.4367 20.4897 68.9975 19.1139 70.1191 17.9924C71.2556 16.8559 72.6538 16.2876 74.3137 16.2876C75.9737 16.2876 77.3644 16.8559 78.486 17.9924C79.6225 19.1139 80.1907 20.4897 80.1907 22.1197C80.1907 23.7497 79.6225 25.133 78.486 26.2695ZM74.3137 25.6639C75.2858 25.6639 76.0858 25.3274 76.7139 24.6545C77.3569 23.9666 77.6784 23.1217 77.6784 22.1197C77.6784 21.1178 77.3569 20.2804 76.7139 19.6074C76.0858 18.9195 75.2858 18.5756 74.3137 18.5756C73.3268 18.5756 72.5118 18.9195 71.8687 19.6074C71.2407 20.2804 70.9266 21.1178 70.9266 22.1197C70.9266 23.1217 71.2407 23.9666 71.8687 24.6545C72.5118 25.3274 73.3268 25.6639 74.3137 25.6639Z" fill="black"/>
<path d="M62.067 27.7275L58.3659 17.9923L54.6647 27.7275H52.2421L48.1372 11.8013H50.8963L53.7899 23.3758L58.3659 11.5321L62.9194 23.3758L65.8355 11.8013H68.617L64.4896 27.7275H62.067Z" fill="black"/>
<g clip-path="url(#clip0_1_358)">
<path fill-rule="evenodd" clip-rule="evenodd" d="M37.0901 18.0656C37.2012 17.4971 37.7495 17.1296 38.3117 17.2405H38.3048C38.8739 17.3515 39.2418 17.8992 39.1307 18.4608C38.2145 23.1477 35.5354 27.2036 31.5722 29.8729C28.5808 31.8905 25.1312 32.9374 21.5984 32.9374C21.1402 32.9374 20.6822 32.9166 20.2171 32.882C19.7868 32.9305 19.3495 32.9582 18.9123 32.9582C18.1974 32.9582 17.4755 32.8889 16.7676 32.7572C17.5727 33.1662 18.4056 33.5198 19.2801 33.7972C23.3127 35.059 27.5952 34.6777 31.3363 32.7225C31.8429 32.4521 32.4745 32.6462 32.7383 33.1593C33.009 33.6654 32.8077 34.2963 32.301 34.5598C29.6566 35.9395 26.8317 36.5913 24.0415 36.5913C18.2529 36.5913 12.6378 33.7694 9.23684 28.7844C8.41783 27.9594 7.71681 27.0164 7.16849 25.9834C8.14019 30.8575 11.3885 35.2046 16.2748 37.3609C16.8092 37.5966 17.0382 38.2067 16.8092 38.7336C16.6357 39.1219 16.2609 39.3507 15.8583 39.3507C15.7126 39.3507 15.5738 39.323 15.4349 39.2606C11.0623 37.3331 7.70985 33.8179 5.98162 29.3668C4.50323 25.5466 4.37828 21.4282 5.59292 17.5803C5.72481 16.4502 6.02326 15.3408 6.48134 14.287C3.27472 18.0864 1.89349 23.328 3.25389 28.4932C3.39965 29.0479 3.06649 29.6164 2.51123 29.762C1.95597 29.9076 1.38683 29.5748 1.24107 29.0201C-1.09796 20.1456 3.70503 11.0492 12.0826 7.81131C13.0473 7.21505 14.0884 6.75745 15.192 6.45932C10.2224 6.32761 5.2667 8.51851 2.08089 12.7894C1.73386 13.2539 1.08838 13.3441 0.623338 13.0043C0.158295 12.6577 0.0611399 12.0059 0.408169 11.5483C5.89137 4.20602 15.9763 2.27857 23.7292 6.77133C24.8327 7.15958 25.853 7.70038 26.7692 8.37292C23.7777 4.42788 18.9747 1.93191 13.6303 2.09137C13.0543 2.11911 12.5753 1.66152 12.5545 1.08607C12.5337 0.510609 12.9849 0.0322086 13.5609 0.0114001C22.7089 -0.314453 30.5242 6.38307 31.8429 15.2368C32.2177 16.3254 32.4329 17.4486 32.4815 18.5717C33.703 13.7739 32.6619 8.47692 29.2124 4.42788C28.8376 3.9911 28.8931 3.33937 29.3303 2.96496C29.7676 2.59058 30.4201 2.64604 30.7949 3.08283C36.75 10.0646 36.3822 20.3397 30.2465 26.8847C29.6358 27.8484 28.8861 28.7151 28.0116 29.4708C28.8376 29.0964 29.6427 28.6666 30.4131 28.1466C33.9113 25.7892 36.285 22.2048 37.0901 18.0656ZM8.83364 19.4206C8.83364 13.8068 13.3845 9.25602 18.9982 9.25602C24.6119 9.25602 29.1628 13.8068 29.1628 19.4206C29.1628 25.0343 24.6119 29.5851 18.9982 29.5851C13.3845 29.5851 8.83364 25.0343 8.83364 19.4206Z" fill="black"/>
</g>
<defs>
<clipPath id="clip0_1_358">
<rect width="39.5663" height="39.5663" fill="white"/>
</clipPath>
</defs>
</svg>
