<svg width="1920" height="1508" viewBox="0 0 1920 1508" fill="none" xmlns="http://www.w3.org/2000/svg">
<mask id="mask0_1_299" style="mask-type:alpha" maskUnits="userSpaceOnUse" x="-142" y="0" width="2076" height="1508">
<rect x="-141.5" y="0.5" width="2075" height="1506.26" fill="#D9D9D9" stroke="url(#paint0_linear_1_299)"/>
</mask>
<g mask="url(#mask0_1_299)">
<path d="M2571.54 275.775C2523.42 368.86 2469.29 468.416 2375.02 514.248C2311.68 544.976 2238.51 547.238 2168.05 547.029C2061.84 546.606 1953.59 541.358 1854.37 502.994C1767.66 469.412 1692.26 411.722 1606.15 376.611C1511.69 337.852 1408.61 327.608 1307 318.22C1226.74 310.758 1143.95 303.598 1067.26 328.269C997.353 350.758 938.3 398.07 875.389 436.049C630.382 583.823 332.821 577.815 81.4792 450.514C-114.224 351.213 -292.586 165.15 -529.746 186.747" stroke="url(#paint1_linear_1_299)" stroke-miterlimit="10"/>
<path opacity="0.98" d="M2569.02 271.951C2521.75 366.31 2468.09 466.239 2374.87 513.665C2334.86 534.058 2290.9 542.895 2246.13 546.331C2220.15 548.133 2193.96 548.241 2168.21 547.611C2122.35 546.967 2075.97 544.839 2030.25 539.54C1970.51 532.73 1911.61 520.581 1855.62 498.293C1833.24 489.272 1811.46 478.72 1790.11 467.43C1728.52 434.898 1670.08 397.782 1606.27 373.331C1546.32 350.226 1482.86 338.79 1419.06 331.691C1382.42 327.716 1345.57 324.798 1308.87 322.463C1229.03 317.014 1146.65 311.867 1070.17 336.856C1048.6 343.975 1027.97 353.215 1007.91 363.676C962.857 387.16 920.68 416.745 876.623 442.087C838.193 464.182 798.622 482.462 758.065 497.508C690.629 522.71 620.865 539.17 550.886 547.322C457.776 558.14 363.863 552.819 272.527 532.329C208.819 518.089 146.373 496.397 86.3992 468.054C-108.344 376.111 -287.601 198.402 -525.29 219.89" stroke="url(#paint2_linear_1_299)" stroke-width="1.0083" stroke-miterlimit="10"/>
<path opacity="0.96" d="M2566.19 268.337C2519.75 363.971 2466.57 464.273 2374.18 512.973C2334.33 533.949 2290.68 543.952 2245.91 547.387C2219.88 549.454 2193.8 549.034 2167.78 548.349C2122.08 546.913 2075.82 544.256 2029.99 538.11C1970.48 530.243 1911.79 517.038 1856.23 494.011C1833.91 484.726 1812.18 473.91 1790.82 462.62C1728.76 429.715 1669.84 393.602 1605.97 370.79C1545.96 349.324 1483.02 339.373 1419.41 333.968C1383.14 330.895 1346.39 328.824 1310.06 327.39C1230.95 323.744 1148.92 320.874 1072.33 346.391C1050.76 353.51 1030.13 362.751 1009.81 373.157C964.548 396.322 922.06 424.742 877.429 448.863C838.634 470.057 798.962 487.489 758.25 501.953C690.449 526.254 620.576 543.241 550.589 552.769C458.208 565.39 365.709 562.564 275.413 545.043C212.381 532.87 150.663 512.981 91.0467 486.914C-102.471 402.386 -283.154 232.92 -520.842 254.408" stroke="url(#paint3_linear_1_299)" stroke-width="1.0166" stroke-miterlimit="10"/>
<path opacity="0.94" d="M2563.62 264.777C2518.07 361.421 2465.31 462.361 2374.03 512.39C2334.54 534.268 2290.99 545.117 2246.22 548.553C2220.19 550.62 2193.85 550.145 2167.67 548.878C2121.82 546.858 2075.77 543.145 2030.37 536.261C1971.08 527.337 1912.87 513.129 1857.21 489.256C1834.68 479.652 1813 468.572 1791.65 457.282C1729.17 423.74 1669.65 389.157 1605.51 367.666C1545.49 347.575 1482.75 339.319 1419.67 335.398C1383.5 333.172 1347.38 332.056 1311.15 331.47C1232.45 329.836 1150.83 328.979 1074.19 354.761C1052.56 362.144 1031.67 371.33 1011.4 381.472C965.664 404.264 922.865 431.518 877.924 454.474C839.082 474.556 798.727 491.297 757.86 505.178C689.694 528.577 619.394 546.303 549.717 556.996C458.121 571.156 366.716 571.034 277.515 556.218C215.421 546.166 154.489 527.816 95.2283 504.027C-97.0645 426.912 -278.853 265.481 -517.179 287.388" stroke="url(#paint4_linear_1_299)" stroke-width="1.0249" stroke-miterlimit="10"/>
<path opacity="0.92" d="M2561.1 260.953C2516.45 358.608 2463.84 460.13 2373.93 511.543C2334.6 534.004 2291.41 545.755 2246.53 549.719C2220.44 552.049 2193.95 550.992 2167.82 549.461C2122.14 546.649 2076.25 542.143 2030.75 534.412C1971.73 524.167 1913.69 509.167 1858.4 484.819C1835.92 474.951 1814.3 463.607 1792.95 452.317C1729.78 418.083 1670 384.821 1605.79 364.97C1545.97 346.573 1483.49 339.746 1420.87 337.574C1385.07 336.249 1349.05 335.981 1313.18 336.296C1234.89 336.675 1153.95 337.885 1077.2 364.195C1055.52 371.843 1034.36 380.974 1013.88 390.798C967.991 413.007 924.618 439.04 879.312 461.095C840.106 480.276 799.704 495.905 758.628 509.467C690.097 531.965 619.423 550.165 550.003 562.288C459.136 578.251 368.88 580.569 280.719 568.722C219.301 560.737 159.098 544.19 100.194 522.678C-91.0836 452.658 -274.087 299.79 -512.678 321.642" stroke="url(#paint5_linear_1_299)" stroke-width="1.0332" stroke-miterlimit="10"/>
<path opacity="0.9" d="M2558.27 257.339C2514.46 356.268 2462.32 458.164 2373.19 511.116C2333.96 534.423 2291.14 547.075 2246.26 551.04C2220.17 553.37 2193.41 552.258 2167.08 550.408C2121.5 547.068 2075.51 541.715 2030.5 532.982C1971.96 521.735 1913.92 505.359 1858.74 480.483C1836.32 470.351 1814.7 459.007 1793.19 447.134C1729.55 412.527 1669.28 380.267 1605.02 362.056C1545.19 345.034 1483.12 340.22 1420.76 339.478C1385.32 339.054 1349.4 339.634 1313.9 340.85C1235.96 343.506 1155.49 346.464 1078.95 373.093C1057 380.686 1036.1 389.872 1015.36 399.641C968.999 421.477 925.316 446.345 879.963 467.288C840.447 485.303 799.89 500.35 758.658 513.329C689.499 534.871 618.716 553.599 549.497 567.416C459.624 585.237 370.571 589.731 283.45 580.853C222.762 574.671 162.97 560.137 104.687 540.956C-85.6295 478.295 -269.74 333.461 -508.649 355.524" stroke="url(#paint6_linear_1_299)" stroke-width="1.0415" stroke-miterlimit="10"/>
<path opacity="0.88" d="M2555.7 253.779C2512.78 353.719 2461.06 456.252 2373.03 510.533C2334.22 534.478 2291.45 548.241 2246.57 552.206C2220.22 554.482 2193.72 553.424 2167.23 550.991C2121.77 547.123 2076 540.713 2030.82 531.397C1972.5 519.093 1914.95 501.715 1859.93 476.047C1837.56 465.65 1815.74 453.987 1794.22 442.115C1729.9 406.815 1669.36 375.877 1604.77 359.25C1544.93 343.605 1483.06 340.484 1421.17 341.49C1386.09 341.969 1350.54 343.45 1315.14 345.513C1237.61 350.182 1157.55 355.153 1081.16 382.365C1059.16 390.222 1038 399.353 1017.05 408.803C970.534 430.057 926.221 453.969 880.558 473.746C840.677 490.86 800.02 505.059 758.369 517.401C688.79 538.306 617.952 557.298 548.725 572.491C459.582 592.114 371.678 599.049 285.598 593.139C225.584 589.025 166.522 576.293 108.596 559.389C-80.76 504.087 -265.767 367.607 -504.994 389.879" stroke="url(#paint7_linear_1_299)" stroke-width="1.0498" stroke-miterlimit="10"/>
<path opacity="0.86" d="M2552.91 249.9C2510.84 351.115 2459.54 454.285 2372.67 509.631C2333.96 534.423 2291.55 549.088 2246.62 553.317C2220.21 555.857 2193.56 554.217 2166.86 551.465C2121.56 546.804 2075.63 539.811 2030.68 529.439C1972.57 516.078 1915.24 497.643 1860.38 471.182C1838.07 460.522 1816.3 448.595 1794.79 436.722C1729.99 401.05 1668.7 371.059 1604.31 356.126C1544.68 342.175 1483.06 340.484 1421.69 342.975C1386.66 344.564 1351.52 346.682 1316.49 349.647C1239.64 356.383 1159.99 363.367 1083.55 390.843C1061.55 398.7 1040.12 407.777 1019.17 417.227C972.442 438.162 927.873 460.644 881.581 479.465C841.599 495.732 800.368 508.711 758.771 520.789C688.827 540.792 617.617 560.258 548.645 576.881C460.286 598.043 373.741 607.737 288.755 604.532C229.472 602.22 171.085 591.556 113.779 576.983C-74.8799 528.986 -260.783 400.859 -500.275 423.077" stroke="url(#paint8_linear_1_299)" stroke-width="1.0581" stroke-miterlimit="10"/>
<path opacity="0.84" d="M2550.35 246.341C2509.16 348.566 2458.28 452.373 2372.51 509.049C2333.96 534.423 2291.86 550.254 2246.93 554.482C2220.52 557.023 2193.6 555.328 2166.96 552.312C2121.77 547.123 2076 539.337 2031.27 527.908C1973.43 513.227 1916.26 493.999 1861.52 467.01C1839 456.031 1817.28 443.839 1795.77 431.967C1730.55 395.657 1668.35 368.782 1604.06 353.321C1544.75 339.16 1483.01 340.749 1422.1 344.988C1387.43 347.479 1352.4 350.444 1317.67 354.574C1241.24 363.323 1162 372.32 1085.76 400.114C1063.71 408.235 1042.29 417.312 1021.13 426.444C973.923 447.006 929.045 468.322 882.442 485.977C842.095 501.343 800.763 513.475 758.692 525.18C688.384 544.281 616.8 564.221 548.084 582.274C460.455 605.239 375.059 617.373 291.113 617.136C232.505 616.892 175.665 604.068 117.953 595.471C-72.0961 567.568 -256.49 434.795 -496.565 457.168" stroke="url(#paint9_linear_1_299)" stroke-width="1.0664" stroke-miterlimit="10"/>
<path opacity="0.82" d="M2547.51 242.726C2507.22 345.962 2456.76 450.407 2371.78 508.621C2333.64 534.633 2291.91 551.365 2246.66 555.803C2220.19 558.608 2193.39 556.385 2166.53 553.05C2121.45 547.332 2075.64 538.436 2031.07 526.214C1973.45 510.476 1916.5 490.192 1862.18 462.464C1839.71 451.221 1818.05 438.765 1796.59 426.628C1730.69 389.627 1668.6 362.224 1603.87 350.252C1544.16 339.315 1483.27 340.803 1422.56 346.736C1388.27 350.129 1353.59 353.995 1318.97 358.973C1242.95 369.734 1164.12 380.744 1087.77 409.067C1065.72 417.188 1043.98 426.474 1022.55 435.552C975.195 455.53 929.687 475.89 882.774 492.38C842.117 506.58 800.629 518.13 758.404 529.251C687.675 547.715 616.037 567.92 547.313 587.348C460.468 611.852 376.167 626.69 293.58 629.213C235.647 631.036 179.382 619.432 122.182 613.695C-66.9697 594.791 -252.462 468.676 -492.801 490.995" stroke="url(#paint10_linear_1_299)" stroke-width="1.0747" stroke-miterlimit="10"/>
<path opacity="0.8" d="M2544.94 239.167C2505.22 343.623 2455.5 448.495 2371.62 508.038C2333.59 534.897 2291.96 552.476 2246.65 557.179C2220.18 559.983 2193.11 557.706 2166.11 553.788C2121.13 547.542 2075.48 537.853 2030.81 524.784C1973.68 508.044 1917 486.439 1862.52 458.128C1840.17 446.356 1818.5 433.901 1796.78 421.71C1730.46 384.071 1667.83 357.934 1602.78 347.547C1543.33 338.04 1482.63 341.222 1422.39 348.904C1388.19 353.144 1353.89 357.912 1319.63 363.791C1244.01 376.565 1165.81 389.906 1089.46 418.229C1067.36 426.614 1045.67 435.637 1023.98 444.659C976.147 464.265 930.329 483.459 883.106 498.784C842.348 512.136 800.495 522.784 758.114 533.323C687.021 550.885 615.01 571.564 546.542 592.421C460.427 618.729 377.539 636.062 295.782 641.235C238.579 644.861 182.117 639.551 126.145 631.864C-60.1597 605.835 -248.434 502.557 -489.091 525.086" stroke="url(#paint11_linear_1_299)" stroke-width="1.083" stroke-miterlimit="10"/>
<path opacity="0.78" d="M2542.42 235.343C2503.6 340.809 2454.24 446.583 2371.52 507.191C2333.85 534.951 2292.32 553.378 2247.01 558.08C2220.55 560.885 2193.21 558.553 2166.26 554.371C2121.18 547.278 2075.7 536.796 2031.46 522.989C1974.54 505.192 1918.08 482.53 1863.98 453.746C1841.68 441.71 1819.8 428.936 1798.08 416.745C1731.29 378.733 1668.17 353.598 1603.06 344.851C1543.6 336.719 1483.11 341.595 1423.38 350.761C1389.55 355.903 1355.56 361.836 1321.45 368.298C1246.25 383.085 1168.45 398.439 1092.27 427.344C1069.89 435.675 1048.15 444.962 1026.52 453.72C978.475 473.007 932.401 490.772 884.548 505.14C843.426 517.591 801.208 527.338 758.672 537.294C687.214 553.955 614.83 575.107 546.618 597.395C461.287 625.241 379.493 645.279 299.041 653.474C242.777 659.222 186.781 655.661 131.43 650.305C-54.4972 631.791 -243.295 536.392 -484.271 559.13" stroke="url(#paint12_linear_1_299)" stroke-width="1.0913" stroke-miterlimit="10"/>
<path opacity="0.76" d="M2539.59 231.729C2501.6 338.47 2452.72 444.616 2371.1 506.554C2333.53 535.161 2292.37 554.489 2247 559.456C2220.22 562.47 2193 559.609 2165.83 555.109C2120.86 547.488 2075.55 536.213 2031.26 521.295C1974.56 502.441 1918.31 478.723 1864.38 449.146C1842.13 436.846 1820.25 424.072 1798.59 411.616C1731.11 372.912 1667.73 349.099 1602.55 341.991C1543.29 335.554 1483.05 341.86 1423.53 352.72C1390.06 358.762 1356.17 365.543 1322.43 372.907C1247.64 389.706 1170.52 407.127 1094.28 436.297C1071.85 444.892 1049.84 454.124 1028 462.564C979.801 481.268 933.098 498.077 884.935 511.279C843.502 522.565 801.184 531.464 758.438 541.102C686.351 556.806 614.177 578.277 545.902 602.205C461.355 631.59 380.656 654.332 301.298 665.232C245.709 673.047 190.179 671.235 135.503 667.946C-49.7274 656.736 -239.421 569.691 -480.662 592.374" stroke="url(#paint13_linear_1_299)" stroke-width="1.0996" stroke-miterlimit="10"/>
<path opacity="0.74" d="M2537.02 228.169C2499.93 335.92 2451.15 442.914 2370.68 505.916C2333.27 535.107 2292.41 555.6 2247.05 560.567C2220.27 563.581 2193.04 560.721 2165.72 555.638C2120.86 547.488 2075.5 535.102 2031.37 519.392C1974.95 499.217 1919.18 474.496 1865.36 444.391C1843.16 431.826 1821.08 418.733 1799.47 406.014C1731.57 366.673 1667.65 344.125 1602.14 338.603C1542.88 333.541 1482.79 341.805 1424.05 354.204C1390.95 361.148 1357.16 368.776 1324.04 377.096C1249.66 395.908 1172.95 415.341 1096.87 445.094C1074.39 453.953 1052.43 462.922 1030.32 471.307C981.655 489.638 934.641 505.281 886.168 517.318C844.37 527.701 801.952 535.754 758.787 544.754C686.335 559.557 613.787 581.502 545.768 606.859C462.215 638.102 382.665 663.284 304.347 677.153C249.488 686.771 194.578 687.29 140.314 686.014C-44.5384 682.319 -234.546 603.471 -476.315 626.046" stroke="url(#paint14_linear_1_299)" stroke-width="1.1079" stroke-miterlimit="10"/>
<path opacity="0.72" d="M2534.24 224.29C2498.04 333.052 2449.94 440.738 2370.26 505.279C2333.21 535.371 2292.51 556.447 2247.1 561.678C2220.26 564.957 2193.04 560.721 2165.3 556.376C2120.22 549.282 2075.34 534.52 2031.38 518.016C1975.44 496.839 1919.63 471.007 1865.96 440.109C1843.56 427.226 1821.79 413.924 1800.18 401.204C1731.55 361.435 1667.41 339.945 1601.84 336.062C1542.57 332.375 1482.94 342.388 1424.41 356.481C1391.41 364.272 1358.24 372.856 1325.18 382.287C1251.42 403.431 1174.91 424.558 1099.03 454.63C1076.55 463.489 1054.28 472.667 1031.96 480.733C983.081 498.746 935.811 512.959 886.709 524.039C844.811 533.576 802.027 540.727 758.707 549.145C685.836 563.311 613.234 585.519 545.206 612.252C462.437 645.033 383.982 672.92 306.759 689.494C252.575 701.179 198.131 703.447 144.751 704.556C-39.723 708.375 -230.254 637.407 -472.396 660.456" stroke="url(#paint15_linear_1_299)" stroke-width="1.1162" stroke-miterlimit="10"/>
<path opacity="0.7" d="M2531.67 220.73C2496.31 330.767 2448.63 439.09 2369.84 504.642C2332.89 535.581 2292.56 557.559 2247.09 563.053C2220.25 566.332 2192.82 561.777 2165.13 557.168C2120.16 549.547 2075.24 533.672 2031.44 516.377C1975.72 494.143 1920.13 467.254 1866.84 435.883C1844.49 422.735 1822.78 409.168 1800.9 396.394C1731.85 355.988 1667.17 335.764 1601.27 333.466C1542.2 331.474 1482.83 342.917 1424.55 358.439C1391.86 367.396 1358.85 376.563 1326.15 386.895C1252.81 410.052 1176.97 433.246 1100.72 463.792C1078.19 472.915 1055.97 481.829 1033.39 489.841C984.298 507.535 936.454 520.527 887.041 530.442C844.778 539.078 801.629 545.327 758.418 553.216C685.182 566.481 612.207 589.163 544.381 617.59C462.396 651.91 385.036 682.502 308.853 702.044C255.344 715.797 201.629 719.867 148.606 723.254C-35.5444 734.851 -226.335 671.817 -468.741 694.811" stroke="url(#paint16_linear_1_299)" stroke-width="1.1245" stroke-miterlimit="10"/>
<path opacity="0.68" d="M2529.1 217.171C2494.63 328.218 2447.37 437.178 2369.69 504.059C2333.16 535.635 2292.87 558.724 2247.4 564.219C2220.51 567.762 2193.13 562.943 2165.02 557.697C2120.16 549.547 2075.41 532.88 2031.82 514.527C1976.32 491.236 1921.21 463.346 1867.82 431.127C1845.52 417.716 1823.6 403.83 1801.99 391.111C1732.52 350.067 1667.3 331.109 1601.35 330.451C1542.26 329.834 1483.1 342.971 1425.55 360.297C1393.22 370.155 1360.31 380.169 1327.98 391.403C1255.04 416.572 1179.62 441.779 1103.58 472.643C1081.04 481.767 1058.51 490.89 1035.98 498.638C986.47 515.694 938.261 527.786 888.538 536.535C845.964 544.005 802.715 549.407 759.03 556.923C685.429 569.286 612.135 592.178 544.511 622.299C463.31 658.158 387.308 691.509 312.22 713.756C259.441 729.311 206.083 735.658 153.735 741.112C-30.0376 760.224 -221.406 705.333 -464.076 728.273" stroke="url(#paint17_linear_1_299)" stroke-width="1.1328" stroke-miterlimit="10"/>
<path opacity="0.66" d="M2526.26 213.556C2492.63 325.878 2445.79 435.476 2369.27 503.421C2332.84 535.844 2292.65 559.781 2247.44 565.33C2220.55 568.873 2192.7 565.056 2164.86 558.489C2120.49 547.961 2075.52 532.351 2031.89 512.887C1976.6 488.54 1921.76 459.328 1868.74 426.636C1846.5 412.96 1824.64 398.811 1802.76 386.036C1732.55 344.565 1667.12 326.664 1601.1 327.646C1542.27 328.459 1483.31 343.29 1425.96 362.309C1394 373.069 1361.45 383.984 1329.22 396.065C1256.69 423.247 1181.89 450.786 1105.85 481.65C1083 490.983 1060.46 500.106 1037.67 507.8C987.951 524.538 939.168 535.409 889.399 543.047C846.724 549.67 803.11 554.17 759.27 561.103C685.304 572.565 611.637 595.931 544.268 627.482C463.852 664.88 388.945 700.935 314.896 726.15C262.793 743.773 210.164 751.923 158.228 759.39C-25.2214 786.28 -216.795 739.059 -460.048 762.154" stroke="url(#paint18_linear_1_299)" stroke-width="1.1411" stroke-miterlimit="10"/>
<path opacity="0.64" d="M2523.75 209.732C2491.01 323.064 2444.59 433.3 2369.17 502.574C2332.84 535.844 2293.07 560.418 2247.76 566.496C2220.6 569.984 2192.8 565.903 2165.02 559.072C2120.76 548.016 2075.73 531.295 2032.22 511.302C1977.14 485.898 1922.52 455.63 1869.62 422.409C1847.43 408.469 1825.62 394.055 1803.53 380.962C1732.9 338.854 1666.93 322.219 1600.59 324.786C1541.75 326.974 1482.99 343.499 1426.11 364.268C1394.25 375.875 1362.07 387.691 1330.2 400.674C1258.03 430.132 1183.69 459.42 1107.81 490.867C1084.95 500.2 1062.42 509.323 1039.36 516.962C989.168 533.327 940.393 542.822 889.995 549.505C846.956 555.226 803.241 558.879 758.981 565.175C684.386 575.681 610.929 599.366 543.233 632.501C463.601 671.438 389.789 710.198 317.099 738.172C265.671 757.862 213.453 768.025 162.456 777.614C-20.9882 812.492 -212.766 772.941 -456.337 796.245" stroke="url(#paint19_linear_1_299)" stroke-width="1.1494" stroke-miterlimit="10"/>
<path opacity="0.62" d="M2520.91 206.118C2489.01 320.725 2443.02 431.598 2368.43 502.147C2332.47 536.319 2292.8 561.739 2247.48 567.817C2220.27 571.569 2192.53 567.225 2164.32 559.756C2120.17 548.171 2075.32 530.657 2032.01 509.609C1977.42 483.202 1922.76 451.822 1870.28 417.863C1847.88 403.605 1826.12 388.927 1804.3 375.889C1733.25 333.143 1666.75 317.775 1600.34 321.981C1541.76 325.599 1483.2 343.818 1426.84 366.071C1395.34 378.579 1363.26 391.243 1331.76 405.127C1260 436.598 1186.07 467.899 1110.4 499.664C1087.49 509.261 1064.69 518.33 1041.42 525.65C991.076 541.432 941.672 549.972 890.964 555.489C847.56 560.308 803.48 563.06 759.33 568.828C684.37 578.432 610.539 602.59 543.1 637.156C464.252 677.632 391.798 719.151 319.939 749.775C269.186 771.532 217.434 783.444 167.057 795.363C-16.0635 838.02 -208.365 806.348 -451.936 829.653" stroke="url(#paint20_linear_1_299)" stroke-width="1.1577" stroke-miterlimit="10"/>
<path opacity="0.6" d="M2518.34 202.558C2487.34 318.176 2441.7 429.95 2368.27 501.564C2332.47 536.319 2293.11 562.905 2247.79 568.983C2220.58 572.735 2192.57 568.336 2164.42 560.603C2120.38 548.49 2075.48 529.865 2032.34 508.023C1978.02 480.296 1923.84 447.914 1871.2 413.372C1848.86 398.85 1827.1 384.172 1805.07 370.815C1733.34 327.377 1666.56 313.33 1599.83 319.121C1541.24 324.115 1483.14 344.082 1426.98 368.029C1395.85 381.439 1364.08 395.268 1332.68 409.999C1261.33 443.484 1188.08 476.851 1112.3 509.145C1089.33 519.006 1066.27 528.021 1043.06 535.077C992.502 550.54 942.524 557.859 891.505 562.21C848.054 565.919 803.61 567.769 759.25 573.218C683.871 582.185 609.721 606.553 542.538 642.549C464.474 684.563 393.115 728.786 322.56 762.434C272.746 786.313 221.405 800.237 171.44 814.17C-11.4118 864.869 -203.863 840.603 -448.018 864.062" stroke="url(#paint21_linear_1_299)" stroke-width="1.166" stroke-miterlimit="10"/>
<path opacity="0.58" d="M2515.56 198.68C2485.45 315.308 2440.23 427.719 2367.91 500.663C2332.41 536.583 2293.21 563.752 2247.84 570.094C2220.57 574.111 2192.41 569.128 2164.05 561.077C2120.12 548.435 2075.38 529.018 2032.19 506.065C1978.09 477.281 1924.13 443.842 1871.86 408.827C1849.63 393.776 1827.61 379.043 1805.84 365.741C1733.64 321.93 1666.43 308.621 1599.58 316.316C1541.19 323.003 1483.09 344.347 1427.39 370.042C1396.63 384.353 1364.96 399.03 1333.92 414.662C1263.19 450.478 1190.15 485.539 1114.31 518.097C1091.34 527.959 1068.28 536.973 1044.8 543.975C993.774 559.065 943.748 565.273 892.155 568.404C848.34 571.211 803.795 572.214 759.015 577.026C683.271 585.091 608.803 609.669 541.821 647.359C464.541 690.912 394.277 737.84 324.816 774.192C275.733 799.874 224.748 816.075 175.777 831.865C-6.8058 890.607 -199.726 873.956 -444.145 897.361" stroke="url(#paint22_linear_1_299)" stroke-width="1.1742" stroke-miterlimit="10"/>
<path opacity="0.56" d="M2512.99 195.12C2483.45 312.968 2439.19 426.126 2367.49 500.025C2332.15 536.528 2293.31 564.599 2247.89 571.205C2220.62 575.222 2192.46 570.239 2163.94 561.605C2120.12 548.435 2075.28 528.171 2032.58 504.216C1978.69 474.375 1924.95 439.88 1872.85 404.071C1850.67 388.756 1828.7 373.76 1806.73 360.138C1733.84 315.636 1666.62 303.702 1599.44 312.982C1541.05 321.045 1483.41 344.137 1428.18 371.581C1397.51 386.739 1366.21 402.317 1335.54 418.851C1265.22 456.679 1192.85 493.808 1116.9 526.894C1093.88 537.02 1070.55 545.98 1046.87 552.663C995.628 567.434 945.084 572.158 893.125 574.387C848.945 576.293 804.299 576.449 759.364 580.678C683.255 587.842 608.733 612.684 541.688 652.013C465.193 697.105 396.287 746.792 327.867 786.113C279.458 813.862 229.149 832.13 180.589 849.933C-1.7795 916.982 -194.85 907.736 -439.852 931.296" stroke="url(#paint23_linear_1_299)" stroke-width="1.1825" stroke-miterlimit="10"/>
<path opacity="0.54" d="M2510.42 191.56C2481.78 310.419 2437.87 424.478 2367.28 499.706C2332.3 537.111 2293.57 566.029 2248.14 572.635C2220.61 576.597 2192.45 571.615 2163.73 562.662C2120.01 548.964 2075.39 527.642 2032.53 503.105C1979.13 472.261 1925.65 436.445 1873.66 400.108C1851.54 384.529 1829.63 369.268 1807.39 355.593C1734.08 310.453 1666.33 299.786 1598.82 310.651C1540.68 320.144 1482.98 344.875 1428.27 373.803C1397.97 389.863 1367.03 406.342 1336.46 423.723C1266.5 463.829 1194.54 502.97 1118.85 536.111C1095.57 546.182 1072.51 555.197 1048.56 561.825C997.164 576.013 945.99 579.781 893.721 580.845C849.44 581.903 804.22 580.84 759.339 584.804C682.602 591.012 607.97 616.382 541.181 657.141C465.47 703.772 397.659 756.164 330.333 798.189C282.6 828.006 232.702 848.287 184.817 868.156C2.9272 943.567 -190.768 941.353 -435.824 965.178" stroke="url(#paint24_linear_1_299)" stroke-width="1.1908" stroke-miterlimit="10"/>
<path opacity="0.52" d="M2507.58 187.946C2479.78 308.079 2436.3 422.776 2366.86 499.069C2332.04 537.057 2293.61 567.14 2248.13 574.01C2220.55 578.237 2192.23 572.672 2163.56 563.454C2119.95 549.228 2075.23 527.059 2032.86 501.519C1979.67 469.62 1926.42 432.746 1874.59 395.617C1852.26 379.719 1830.4 364.194 1808.42 350.573C1734.69 304.796 1666.46 295.131 1598.84 307.9C1540.69 318.768 1483.46 345.248 1428.95 375.87C1399.01 392.832 1368.17 410.158 1337.97 428.441C1268.42 470.559 1197.13 511.767 1121.34 545.437C1098 555.772 1074.67 564.732 1050.51 571.042C998.644 584.857 947.424 587.514 894.581 587.357C849.989 587.25 804.614 585.603 759.314 588.93C682.211 594.236 607.262 619.817 540.619 662.534C465.483 710.385 398.976 765.8 332.954 810.849C285.896 842.732 236.674 865.08 189.199 886.963C7.52451 970.681 -186.321 975.872 -431.905 999.587" stroke="url(#paint25_linear_1_299)" stroke-width="1.1991" stroke-miterlimit="10"/>
<path opacity="0.5" d="M2505.07 184.122C2478.16 305.266 2435.36 420.654 2366.76 498.222C2332.3 537.111 2293.98 568.042 2248.5 574.912C2220.91 579.138 2192.59 573.573 2163.77 563.773C2120.01 548.964 2075.77 525.793 2033.29 499.406C1980.33 466.449 1927.29 428.52 1875.83 390.917C1853.56 374.754 1831.75 358.965 1809.51 345.289C1735.05 299.085 1666.6 290.476 1598.7 304.566C1540.54 316.81 1483.77 345.038 1429.73 377.409C1400.16 395.272 1369.63 413.764 1339.58 432.63C1270.44 476.76 1199.57 519.982 1123.98 553.97C1100.59 564.569 1077 573.474 1052.84 579.784C1000.76 593.281 948.968 594.718 895.76 593.659C850.804 592.65 805.327 590.157 759.873 592.901C682.405 597.306 607.082 623.36 540.696 667.507C466.343 716.897 401.141 775.335 336.004 822.77C289.676 856.456 240.81 881.081 194.275 905.086C13.0787 997.165 -181.445 1009.65 -427.293 1033.31" stroke="url(#paint26_linear_1_299)" stroke-width="1.2074" stroke-miterlimit="10"/>
<path opacity="0.48" d="M2502.23 180.508C2476.22 302.662 2433.78 418.952 2366.08 497.531C2331.98 537.321 2293.76 569.098 2248.28 575.969C2220.64 580.459 2192.11 574.576 2163.08 564.457C2119.43 549.119 2075.08 525.101 2032.83 497.658C1980.08 463.644 1927.58 424.448 1875.97 386.262C1853.74 369.836 1831.73 353.728 1809.81 339.842C1734.92 293 1665.67 285.604 1597.98 301.388C1540.08 315.061 1483.3 344.665 1429.67 379.049C1400.2 397.759 1370.04 417.152 1340.29 437.184C1271.78 483.646 1201.1 528.561 1125.67 563.132C1102.28 573.731 1078.69 582.637 1054.27 588.892C1002.03 601.806 949.61 602.287 896.092 600.063C851.035 598.207 804.929 594.757 759.319 596.919C681.432 600.686 605.845 626.686 539.66 672.527C466.092 723.456 401.984 784.598 337.887 835.001C292.234 870.755 243.989 897.712 197.974 923.2C17.2568 1023.64 -177.891 1043.16 -424.112 1067.3" stroke="url(#paint27_linear_1_299)" stroke-width="1.2157" stroke-miterlimit="10"/>
<path opacity="0.46" d="M2499.66 176.948C2474.48 300.377 2432.47 417.304 2365.92 496.948C2331.93 537.585 2294.13 570 2248.54 577.399C2220.9 581.889 2192.1 575.951 2163.18 565.304C2119.64 549.438 2075.46 524.628 2033.36 496.391C1980.84 461.321 1928.55 421.068 1877.1 382.089C1854.94 365.399 1832.98 349.027 1810.79 335.087C1735.49 287.608 1665.75 281.214 1597.94 298.901C1540.03 313.95 1483.72 345.302 1430.34 381.116C1401.24 400.728 1371.18 420.968 1342.06 441.955C1273.96 490.43 1203.96 537.413 1128.21 572.193C1104.77 583.057 1080.91 591.908 1056.28 597.845C1003.57 610.385 951.154 609.49 897.007 606.311C851.585 603.553 805.433 598.993 759.613 600.835C681.362 603.701 605.456 629.91 539.472 677.446C466.688 729.913 403.939 793.815 340.937 846.923C296.223 884.798 248.389 913.767 202.785 941.269C22.7565 1050.39 -173.016 1076.94 -419.765 1100.97" stroke="url(#paint28_linear_1_299)" stroke-width="1.224" stroke-miterlimit="10"/>
<path opacity="0.44" d="M2497.15 173.124C2472.86 297.563 2431.47 415.446 2365.77 496.365C2332.14 537.904 2294.44 571.165 2248.85 578.564C2221.15 583.319 2192.2 576.798 2163.07 565.832C2119.64 549.438 2075.68 523.571 2033.48 494.487C1981.43 458.415 1929.16 416.786 1878.03 377.598C1855.92 360.643 1834.01 344.007 1811.83 330.067C1735.84 281.896 1665.83 276.823 1597.69 296.096C1540.04 312.575 1483.67 345.567 1431.02 383.183C1402.28 403.696 1372.58 424.838 1343.57 446.672C1275.82 497.424 1206.23 546.419 1130.75 581.254C1107.3 592.118 1083.39 601.233 1058.55 606.851C1005.63 619.073 952.643 616.958 898.449 612.667C852.663 609.008 806.41 603.601 760.436 604.86C681.819 606.825 605.54 633.508 539.812 682.473C467.867 736.216 406.158 803.086 344.251 858.898C300.212 898.841 253.053 929.877 207.86 959.391C28.2557 1077.14 -168.141 1110.72 -414.89 1134.75" stroke="url(#paint29_linear_1_299)" stroke-width="1.2323" stroke-miterlimit="10"/>
<path opacity="0.42" d="M2494.31 169.51C2470.86 295.224 2429.9 413.744 2365.08 495.673C2331.56 538.059 2294.22 572.222 2248.63 579.621C2220.67 584.321 2191.99 577.855 2162.7 566.306C2119.37 549.383 2075.31 522.669 2033.33 492.529C1981.5 455.4 1929.71 412.769 1878.48 372.734C1856.21 355.196 1834.25 338.824 1812.12 324.62C1735.66 276.076 1665.17 272.005 1596.97 292.918C1539.31 310.772 1483.4 345.512 1430.96 384.823C1402.32 406.183 1372.98 428.227 1344.34 450.962C1277.26 503.781 1208.08 554.789 1132.49 590.153C1108.99 601.281 1084.87 610.077 1059.77 615.64C1006.64 627.544 953.075 624.209 898.571 618.752C852.738 613.982 806.066 607.937 759.672 608.559C680.426 609.567 604.093 636.515 538.567 687.174C467.141 742.401 407.055 812.085 346.188 870.866C302.824 912.876 256.341 945.979 211.823 977.561C32.9616 1103.72 -164.059 1144.34 -411.391 1168.52" stroke="url(#paint30_linear_1_299)" stroke-width="1.2406" stroke-miterlimit="10"/>
<path opacity="0.4" d="M2491.74 165.95C2469.19 292.674 2428.85 412.151 2364.93 495.09C2331.82 538.113 2294.53 573.388 2248.88 581.051C2220.93 585.751 2191.98 579.23 2162.48 567.363C2119.26 549.911 2075.36 522.405 2033.61 491.208C1982 453.022 1930.42 409.335 1879.62 368.562C1857.4 350.76 1835.5 334.123 1813.1 319.865C1736.22 270.683 1665.25 267.615 1596.67 290.376C1539.05 309.342 1483.29 346.04 1431.58 387.154C1403.3 409.416 1374.28 432.625 1345.79 455.944C1279.07 511.04 1210.36 563.796 1134.98 599.478C1111.21 610.551 1087.04 619.612 1061.99 624.911C1008.44 636.177 954.51 631.941 899.695 625.318C853.498 619.646 806.516 612.436 760.176 612.794C680.566 612.901 603.913 640.058 538.589 692.412C467.948 749.177 408.956 821.565 349.183 883.051C306.495 927.128 260.687 962.299 216.635 995.629C38.7255 1130.52 -159.447 1178.06 -407.098 1202.46" stroke="url(#paint31_linear_1_299)" stroke-width="1.2489" stroke-miterlimit="10"/>
<path opacity="0.38" d="M2488.96 162.072C2467.3 289.807 2427.38 409.92 2364.56 494.188C2331.82 538.113 2294.68 573.971 2248.98 581.898C2220.97 586.862 2191.81 580.022 2162.43 567.627C2119.32 549.647 2075.37 521.029 2033.72 489.304C1982.38 449.797 1931.03 405.053 1880.33 363.752C1858.17 345.686 1836.32 328.785 1813.98 314.263C1736.42 264.389 1665.18 262.641 1596.53 287.043C1539.17 307.438 1483.61 345.831 1432.15 388.374C1404.24 411.537 1375.32 435.594 1347.19 459.814C1280.89 516.922 1212.85 571.746 1137.36 607.957C1113.54 619.294 1089.37 628.355 1064.1 633.335C1010.35 644.283 956.108 638.88 900.719 631.038C854.156 624.464 807.073 616.407 760.314 616.128C680.339 615.333 603.368 642.7 538.245 696.747C468.178 754.733 410.491 830.144 352.022 894.653C310.064 940.533 264.822 978.3 221.236 1013.38C44.0146 1156.95 -154.782 1211.53 -402.962 1235.81" stroke="url(#paint32_linear_1_299)" stroke-width="1.2572" stroke-miterlimit="10"/>
<path opacity="0.36" d="M2486.39 158.512C2465.57 287.521 2426.33 408.327 2364.14 493.551C2331.5 538.323 2294.73 575.082 2249.03 583.009C2221.02 587.973 2191.86 581.134 2162.05 568.101C2119.05 549.593 2075.27 520.182 2033.58 487.346C1982.46 446.782 1931.58 401.036 1881 359.206C1858.89 340.876 1836.83 323.657 1814.49 309.134C1736.51 258.624 1664.78 257.878 1595.75 284.129C1538.39 305.899 1483.03 345.986 1432.03 390.278C1404.22 414.288 1375.93 439.301 1347.85 464.632C1282.17 524.072 1214.33 580.59 1139.05 617.119C1115.18 628.72 1090.79 637.462 1065.21 642.653C1011.25 653.281 956.432 646.659 900.732 637.651C854.069 630.23 806.622 621.271 759.707 620.409C679.367 618.713 602.023 646.554 537.156 702.031C467.873 761.556 411.49 839.99 353.907 906.885C312.623 954.832 268.056 994.666 225.145 1031.81C48.8771 1184.12 -151.018 1245.35 -399.252 1269.9" stroke="url(#paint33_linear_1_299)" stroke-width="1.2655" stroke-miterlimit="10"/>
<path opacity="0.34" d="M2483.56 154.898C2463.63 284.918 2424.76 406.625 2363.67 493.178C2331.39 538.851 2294.46 576.403 2248.97 584.649C2220.9 589.877 2191.59 582.455 2161.78 569.421C2118.89 550.385 2075.01 520.128 2033.79 486.289C1982.89 444.669 1932.29 397.602 1881.81 355.243C1859.76 336.649 1837.76 319.166 1815.42 304.643C1737.01 253.495 1664.75 254.016 1595.66 281.906C1538.29 305.052 1483.39 346.887 1432.86 392.928C1405.42 417.84 1377.23 443.699 1349.51 469.932C1284.24 531.385 1217.02 590.234 1141.42 626.973C1117.55 638.574 1093.11 647.581 1067.32 652.452C1012.88 662.708 957.812 654.655 901.748 644.746C854.719 636.424 807.171 626.618 760.102 625.173C679.342 622.839 601.734 650.626 537.068 707.797C468.624 768.596 413.281 849.999 357.002 919.917C316.658 969.986 272.502 1011.83 230.002 1050.99C54.6866 1212.04 -146.361 1280.19 -394.859 1304.68" stroke="url(#paint34_linear_1_299)" stroke-width="1.2738" stroke-miterlimit="10"/>
<path opacity="0.32" d="M2480.99 151.338C2461.63 282.578 2423.71 405.031 2363.51 492.595C2331.6 539.17 2294.77 577.569 2249.28 585.814C2220.95 590.988 2191.63 583.566 2161.94 570.004C2119.15 550.44 2075.49 519.126 2034.17 484.44C1983.76 441.817 1933.11 393.639 1883.06 350.542C1861.06 331.684 1838.85 313.882 1816.51 299.359C1737.36 247.784 1664.94 249.097 1595.73 278.891C1538.35 303.413 1483.66 346.942 1433.59 394.731C1406.51 420.544 1378.42 447.251 1351.07 474.385C1286.15 538.115 1219.4 598.712 1144.02 635.77C1120.09 647.636 1095.38 656.587 1069.38 661.141C1014.79 670.813 959.355 661.859 902.716 650.729C855.378 641.242 807.465 630.534 760.185 628.771C678.797 625.481 600.87 653.477 536.615 712.661C468.692 774.945 414.971 859.161 359.523 931.729C319.854 983.866 276.373 1027.78 234.339 1068.69C59.976 1238.47 -141.96 1313.6 -391.04 1338.25" stroke="url(#paint35_linear_1_299)" stroke-width="1.2821" stroke-miterlimit="10"/>
<path opacity="0.3" d="M2478.47 147.514C2460.01 279.765 2422.71 403.174 2363.41 491.748C2331.6 539.17 2295.13 578.47 2249.38 586.661C2221.05 591.835 2191.74 584.413 2161.62 570.214C2118.94 550.121 2075.18 517.96 2034.29 482.536C1984.09 438.857 1933.92 389.676 1883.72 345.997C1861.51 326.82 1839.62 308.808 1817.07 293.967C1737.51 241.754 1664.55 244.334 1595.01 275.713C1537.88 301.664 1483.39 346.887 1433.59 396.106C1406.61 422.767 1379.09 450.693 1351.89 478.41C1287.65 544.207 1221.31 606.818 1145.82 644.403C1121.89 656.269 1096.92 665.167 1070.92 669.72C1016.12 679.074 960.106 668.9 903.157 656.604C855.718 646.27 807.44 634.66 760.006 632.314C678.252 628.123 600.007 656.329 535.954 717.207C468.55 780.975 416.188 867.951 362.044 943.542C323.051 997.745 280.191 1043.99 238.622 1086.65C65.2658 1264.9 -137.822 1346.95 -387.222 1371.81" stroke="url(#paint36_linear_1_299)" stroke-width="1.2904" stroke-miterlimit="10"/>
<path opacity="0.28" d="M2475.63 143.9C2458.07 277.161 2421.14 401.472 2362.73 491.056C2331.34 539.116 2294.97 579.263 2249.11 587.982C2220.72 593.42 2191.2 585.679 2161.13 571.216C2118.31 550.541 2074.97 517.641 2034.04 481.106C1984.05 436.37 1934.16 385.869 1884.33 341.715C1862.23 322.01 1840.33 303.998 1817.78 289.157C1737.8 236.307 1664.1 239.834 1594.71 273.172C1537.57 300.498 1483.28 347.416 1434.21 398.438C1407.59 426 1380.18 454.773 1353.34 483.392C1289.46 551.466 1223.59 615.825 1148.3 653.729C1124.32 665.859 1099.35 674.756 1073.14 678.991C1017.86 687.972 961.54 676.632 904.281 663.17C856.477 651.934 808.098 639.478 760.245 636.495C678.126 631.402 599.562 659.818 535.71 722.39C469.145 787.432 418.088 877.431 364.774 955.673C326.51 1011.68 284.535 1060.31 243.378 1104.98C71.2383 1292.02 -133.002 1381 -382.666 1405.8" stroke="url(#paint37_linear_1_299)" stroke-width="1.2987" stroke-miterlimit="10"/>
<path opacity="0.26" d="M2473.06 140.34C2456.33 274.876 2420.14 399.614 2362.52 490.738C2331.49 539.698 2295.22 580.692 2249.36 589.412C2220.98 594.85 2191.19 587.055 2160.97 572.009C2118.25 550.805 2074.87 516.794 2034.1 479.467C1984.33 433.674 1934.66 382.115 1884.99 337.17C1862.95 317.2 1840.84 298.87 1818.29 284.028C1737.63 230.486 1663.65 235.335 1593.93 270.257C1536.79 298.959 1483.02 347.361 1434.09 400.341C1407.84 428.805 1380.79 458.48 1354.06 487.946C1290.85 558.087 1225.39 624.458 1150.04 662.627C1125.74 674.967 1100.77 683.864 1074.36 687.78C1018.87 696.442 962.237 683.937 904.404 669.255C856.235 657.117 807.81 643.55 759.746 640.248C677.263 634.254 598.381 662.879 534.73 727.145C468.685 793.672 418.987 886.43 366.713 967.64C329.388 1025.77 287.824 1076.41 247.078 1123.09C75.8909 1318.87 -129.502 1414.77 -379.43 1439.52" stroke="url(#paint38_linear_1_299)" stroke-width="1.307" stroke-miterlimit="10"/>
<path opacity="0.24" d="M2470.28 136.461C2454.45 272.008 2418.89 397.702 2362.16 489.836C2331.49 539.698 2295.32 581.54 2249.46 590.259C2221.02 595.962 2191.08 587.583 2160.92 572.273C2118.25 550.805 2075.09 515.738 2034.53 477.353C1984.99 430.504 1935.85 377.679 1886.29 332.205C1864.3 311.971 1842.25 293.376 1819.7 278.535C1738.62 224.356 1664.15 230.206 1594.32 267.033C1537.17 297.11 1483.6 347.206 1435.14 401.935C1408.99 431.245 1382.3 461.822 1355.88 492.453C1293.03 564.871 1227.98 633.256 1152.84 671.743C1128.54 684.083 1103.58 692.98 1076.89 696.841C1021.25 704.921 963.99 691.459 905.846 675.612C857.576 662.627 808.522 648.104 760.568 644.273C677.72 637.378 598.2 666.422 535.07 732.173C469.863 799.974 421.469 895.756 370.29 979.67C333.641 1039.87 292.752 1092.58 252.417 1141.27C82.5009 1345.57 -124.044 1448.39 -374.609 1473.56" stroke="url(#paint39_linear_1_299)" stroke-width="1.3153" stroke-miterlimit="10"/>
<path opacity="0.22" d="M2467.71 132.902C2452.72 269.723 2417.84 396.109 2361.74 489.199C2331.17 539.908 2295.37 582.651 2249.46 591.635C2221.02 597.337 2191.07 588.959 2160.43 573.275C2117.88 551.279 2074.61 515.364 2034.22 476.187C1984.9 428.281 1935.97 374.4 1886.53 328.397C1864.59 307.899 1842.59 289.04 1819.83 273.88C1738.28 219.328 1663.33 226.181 1593.44 264.647C1536.6 295.89 1482.91 347.89 1435.23 404.157C1409.45 434.369 1383.07 466.112 1356.81 497.326C1294.63 571.811 1229.72 642.154 1154.54 680.905C1130.18 693.509 1104.95 702.352 1078.06 705.894C1021.94 713.601 964.424 698.709 905.915 681.961C857.334 667.81 808.18 652.44 759.752 648.236C676.275 640.384 596.7 669.693 533.771 737.138C469.085 806.424 422.049 904.964 371.965 991.583C335.991 1053.85 296.042 1108.68 256.172 1159.12C87.4727 1372.21 -120.489 1481.9 -371.319 1507.01" stroke="url(#paint40_linear_1_299)" stroke-width="1.3236" stroke-miterlimit="10"/>
<path opacity="0.2" d="M2464.88 129.287C2450.77 267.119 2416.52 394.461 2361.58 488.616C2331.38 540.227 2295.68 583.817 2249.77 592.8C2221.06 598.448 2191.12 590.07 2160.59 573.858C2118.14 551.333 2075.04 514.626 2034.61 474.338C1985.76 425.43 1937.05 370.491 1887.77 323.696C1865.89 302.934 1843.63 284.021 1821.19 268.651C1738.95 213.407 1663.52 221.262 1593.51 261.632C1536.66 294.25 1483.44 347.999 1435.96 405.96C1410.54 437.074 1384.27 469.663 1358.63 501.833C1296.81 578.595 1232.63 650.741 1157.34 690.021C1132.98 702.625 1107.43 711.677 1080.54 715.22C1024.21 722.608 966.386 706.551 907.567 688.636C858.622 673.584 809.367 657.367 760.783 652.58C676.941 643.827 597.048 673.346 534.321 742.484C470.155 813.255 424.687 914.872 375.697 1004.2C340.399 1068.53 301.125 1125.43 261.666 1177.88C94.2379 1399.49 -115.195 1516.32 -366.288 1541.38" stroke="url(#paint41_linear_1_299)" stroke-width="1.3319" stroke-miterlimit="10"/>
<path opacity="0.18" d="M2462.31 125.728C2449.1 264.569 2415.21 392.813 2361.16 487.979C2331.33 540.491 2295.78 584.663 2249.81 593.911C2221.05 599.823 2190.9 591.126 2160.22 574.332C2117.88 551.279 2074.73 513.461 2034.72 472.434C1986.09 422.469 1937.66 366.21 1888.49 318.886C1866.4 297.805 1844.45 278.683 1821.75 263.258C1739.09 207.377 1663.13 216.499 1593.1 258.244C1536.25 292.238 1483.23 347.68 1436.22 407.39C1410.9 439.35 1385.25 472.896 1359.72 505.913C1298.57 584.742 1234.54 658.846 1159.46 698.445C1135.05 711.313 1109.55 720.101 1082.39 723.589C1025.86 730.658 967.457 713.381 908.327 694.301C859.281 678.402 809.397 661.229 760.658 655.859C676.451 646.204 595.976 675.878 533.713 746.766C470.386 818.811 425.959 923.397 378.063 1015.43C343.759 1081.61 305.051 1141.11 265.793 1195.26C99.5823 1425.66 -110.949 1549.14 -362.361 1574.41" stroke="url(#paint42_linear_1_299)" stroke-width="1.3402" stroke-miterlimit="10"/>
<path opacity="0.16" d="M2459.79 121.904C2447.42 262.02 2414.22 390.956 2360.74 487.341C2331.27 540.755 2295.83 585.775 2249.8 595.287C2221.04 601.199 2190.63 592.447 2160 575.389C2117.77 551.807 2074.78 513.196 2034.73 471.059C1986.32 420.037 1938.1 362.721 1889.3 314.924C1867.27 293.578 1845.12 274.137 1822.41 258.713C1739.33 202.194 1662.89 212.318 1592.48 255.912C1535.62 291.282 1483.07 348.472 1436.52 409.931C1411.56 442.793 1386.02 477.186 1360.85 511.104C1300.06 592.21 1236.71 668.382 1161.57 708.244C1137.1 721.377 1111.34 730.111 1083.97 733.28C1027.02 739.712 968.253 721.533 908.813 701.287C859.402 684.487 809.417 666.466 760.523 660.514C675.952 649.958 595.157 679.841 533.096 752.423C470.289 825.952 427.485 933.352 380.629 1028.35C347 1096.6 308.968 1158.17 270.121 1214.33C105.29 1452.72 -106.712 1583.34 -358.442 1608.82" stroke="url(#paint43_linear_1_299)" stroke-width="1.3485" stroke-miterlimit="10"/>
<path opacity="0.14" d="M2456.96 118.29C2445.48 259.416 2412.96 389.044 2360.32 486.704C2331.28 540.755 2295.87 586.886 2249.85 596.398C2221.04 602.575 2190.68 593.559 2159.89 575.917C2117.77 551.807 2074.68 512.35 2034.79 469.42C1986.6 417.341 1938.92 358.758 1889.97 310.378C1868.04 288.505 1845.89 269.063 1823.24 253.375C1739.74 196.219 1662.49 207.555 1592.29 252.843C1535.42 289.588 1483.07 348.473 1437.04 411.416C1412.45 445.179 1387.27 480.473 1362.2 515.239C1302.09 598.412 1239.14 676.596 1163.95 716.723C1139.48 729.855 1113.67 738.854 1086.09 741.704C1028.93 747.817 969.588 728.418 909.837 707.007C860.062 689.305 810.03 670.173 760.927 663.902C675.99 652.444 594.613 682.483 532.963 757.077C470.731 831.827 429.495 942.304 383.47 1039.95C350.78 1110.33 313.423 1173.96 275.042 1231.87C111.637 1479.37 -101.836 1617.12 -354.095 1642.49" stroke="url(#paint44_linear_1_299)" stroke-width="1.3568" stroke-miterlimit="10"/>
<path opacity="0.12" d="M2454.39 114.73C2443.75 257.131 2411.91 387.451 2360.17 486.121C2331.48 541.074 2296.18 588.052 2250.11 597.828C2221.29 604.004 2190.67 594.934 2159.73 576.71C2117.45 552.017 2074.58 511.503 2035.12 467.835C1987.15 414.699 1939.68 355.06 1890.89 305.887C1869.02 283.749 1846.92 264.044 1824.01 248.301C1739.82 190.453 1662.36 202.846 1592.04 250.038C1535.16 288.158 1483.01 348.737 1437.45 413.429C1412.96 448.039 1388.09 484.499 1363.39 520.166C1303.63 605.616 1241.15 685.548 1166.11 726.258C1141.59 739.655 1115.57 748.334 1087.99 751.185C1030.62 756.979 970.968 736.415 910.643 713.783C860.766 695.234 810.37 675.201 760.848 668.292C675.282 655.879 593.796 686.446 532.138 762.415C470.425 838.649 430.812 951.94 385.827 1052.56C353.812 1125 317.13 1190.7 279.161 1250.62C117.027 1506.65 -97.8622 1651.27 -350.44 1676.85" stroke="url(#paint45_linear_1_299)" stroke-width="1.3651" stroke-miterlimit="10"/>
<path opacity="0.1" d="M2451.61 110.851C2441.86 254.263 2410.39 385.484 2359.8 485.22C2331.22 541.019 2296.34 588.634 2250.21 598.675C2221.08 605.061 2190.56 595.462 2159.62 577.238C2117.4 552.281 2074.75 510.71 2035.24 465.931C1987.48 411.738 1940.29 350.778 1891.87 301.132C1870.06 278.73 1847.75 258.705 1825.1 243.017C1740.5 184.532 1662.5 198.191 1591.85 246.968C1535.22 286.518 1483.28 348.791 1438.18 415.231C1414.06 450.743 1389.55 488.105 1364.95 524.619C1305.86 612.136 1243.75 694.346 1168.7 735.055C1143.87 748.662 1117.84 757.341 1090.06 759.873C1032.21 765.294 972.247 743.564 911.612 719.767C861.371 700.316 810.61 679.381 761.196 671.945C675.211 658.894 593.197 689.352 532.004 767.07C471.076 844.843 432.558 960.838 388.667 1064.16C357.328 1138.67 321.321 1206.43 283.762 1268.37C122.9 1532.92 -93.4607 1684.68 -346.357 1710.47" stroke="url(#paint46_linear_1_299)" stroke-width="1.3734" stroke-miterlimit="10"/>
<path opacity="0.08" d="M2449.04 107.292C2439.92 251.66 2409.34 383.891 2359.38 484.582C2331.17 541.284 2296.39 589.746 2250.25 599.786C2221.12 606.172 2190.34 596.519 2159.24 577.712C2117.13 552.226 2074.38 509.808 2035.36 464.027C1987.82 408.778 1941.11 346.816 1892.53 296.586C1870.77 273.92 1848.52 253.632 1825.6 237.889C1740.58 178.766 1661.84 193.373 1591.34 244.108C1534.76 284.77 1482.96 349.001 1438.33 417.19C1414.3 453.549 1390.43 491.866 1365.92 529.227C1307.2 619.022 1245.54 702.979 1170.39 744.218C1145.56 757.824 1119.48 766.767 1091.48 768.981C1033.42 774.083 972.889 751.133 911.943 726.17C861.337 705.818 810.53 683.772 760.642 675.962C674.293 662.01 591.695 692.623 530.968 772.09C470.614 851.082 433.4 970.101 390.814 1076.44C360.204 1152.76 325.137 1222.64 287.671 1286.8C128.927 1559.78 -89.1691 1718.61 -342.329 1744.35" stroke="url(#paint47_linear_1_299)" stroke-width="1.3817" stroke-miterlimit="10"/>
<path opacity="0.06" d="M2446.47 103.732C2438.19 249.374 2408.29 382.297 2359.17 484.264C2331.32 541.866 2296.64 591.176 2250.45 601.48C2221.32 607.866 2190.54 598.213 2159.29 578.823C2117.29 552.809 2074.7 509.599 2035.63 462.706C1988.31 406.4 1941.87 343.117 1893.67 292.414C1871.96 269.483 1849.76 248.931 1826.58 233.133C1740.83 173.583 1661.92 188.982 1591.04 241.567C1534.45 283.604 1482.9 349.265 1438.74 419.202C1415.08 456.463 1391.3 495.627 1367.17 533.89C1309.11 625.752 1247.87 711.722 1172.67 753.224C1147.78 767.095 1121.49 775.72 1093.23 777.879C1034.96 782.662 973.85 758.492 912.594 732.363C861.677 710.845 810.715 688.217 760.672 679.824C673.958 664.97 591.042 695.793 530.516 776.954C470.682 857.431 435.091 979.263 393.335 1088.26C363.401 1166.64 329.273 1238.64 292.218 1304.82C134.745 1586.32 -84.558 1752.34 -338.247 1777.96" stroke="url(#paint48_linear_1_299)" stroke-width="1.39" stroke-miterlimit="10"/>
<path opacity="0.04" d="M2443.69 99.8535C2436.3 246.507 2407.09 380.121 2358.81 483.362C2331.32 541.866 2296.74 592.023 2250.55 602.327C2221.37 608.978 2190.38 599.006 2158.92 579.297C2117.02 552.755 2074.39 508.433 2035.43 461.012C1988.32 403.65 1942.37 339.364 1894.07 287.814C1872.15 264.565 1850.01 243.748 1827.14 227.741C1740.97 167.553 1661.26 184.165 1590.58 238.444C1533.98 281.856 1482.9 349.265 1439.2 420.951C1415.91 459.113 1392.45 499.443 1368.46 538.289C1311.03 632.482 1249.99 720.146 1175 761.967C1150.1 775.838 1123.76 784.727 1095.24 786.831C1036.55 790.978 975.393 765.696 913.508 738.611C862.491 716.246 811.164 692.716 760.966 683.741C673.887 667.985 590.388 698.963 530.328 781.873C471.014 863.834 436.782 988.426 396.12 1100.12C366.861 1180.57 333.409 1254.65 296.819 1322.57C140.773 1613.18 -80.2111 1786.01 -334.218 1811.85" stroke="url(#paint49_linear_1_299)" stroke-width="1.3983" stroke-miterlimit="10"/>
<path opacity="0.02" d="M2441.11 96.2934C2434.57 244.221 2406.31 378.582 2358.39 482.725C2331.32 541.866 2296.79 593.134 2250.6 603.439C2221.41 610.089 2190.16 600.062 2158.81 579.825C2116.76 552.7 2074.55 507.64 2035.81 459.163C1989.19 400.798 1943.19 335.401 1895.26 283.377C1873.45 259.599 1851.3 238.783 1828.18 222.721C1741.32 161.842 1661.39 179.51 1590.33 235.638C1533.73 280.426 1482.85 349.529 1439.61 422.964C1416.42 461.973 1393.32 503.204 1369.7 542.951C1312.68 639.157 1252.05 728.834 1177.21 771.238C1152.27 785.373 1125.66 794.207 1097.19 796.048C1038.29 799.876 976.564 773.374 914.368 745.123C862.986 721.857 811.294 697.425 760.941 687.867C673.497 671.21 589.415 702.343 529.821 787.001C470.817 870.128 438.418 997.852 398.796 1112.52C370.477 1195.09 337.699 1271.23 301.256 1341.11C146.326 1639.66 -76.1832 1819.89 -330.245 1845.99" stroke="url(#paint50_linear_1_299)" stroke-width="1.4066" stroke-miterlimit="10"/>
</g>
<defs>
<linearGradient id="paint0_linear_1_299" x1="896" y1="0" x2="896" y2="1507.26" gradientUnits="userSpaceOnUse">
<stop stop-color="#B35AEA"/>
<stop offset="1" stop-color="#D87D7D"/>
</linearGradient>
<linearGradient id="paint1_linear_1_299" x1="932.794" y1="658.449" x2="1075.35" y2="-32.7918" gradientUnits="userSpaceOnUse">
<stop stop-color="#B35AEA"/>
<stop offset="1" stop-color="#D87D7D"/>
</linearGradient>
<linearGradient id="paint2_linear_1_299" x1="934.611" y1="669.005" x2="1079.84" y2="-35.1723" gradientUnits="userSpaceOnUse">
<stop stop-color="#B35AEA"/>
<stop offset="1" stop-color="#D87D7D"/>
</linearGradient>
<linearGradient id="paint3_linear_1_299" x1="936.057" y1="681.356" x2="1084.27" y2="-37.2883" gradientUnits="userSpaceOnUse">
<stop stop-color="#B35AEA"/>
<stop offset="1" stop-color="#D87D7D"/>
</linearGradient>
<linearGradient id="paint4_linear_1_299" x1="937.245" y1="692.956" x2="1088.3" y2="-39.4863" gradientUnits="userSpaceOnUse">
<stop stop-color="#B35AEA"/>
<stop offset="1" stop-color="#D87D7D"/>
</linearGradient>
<linearGradient id="paint5_linear_1_299" x1="938.615" y1="706.342" x2="1092.92" y2="-41.8391" gradientUnits="userSpaceOnUse">
<stop stop-color="#B35AEA"/>
<stop offset="1" stop-color="#D87D7D"/>
</linearGradient>
<linearGradient id="paint6_linear_1_299" x1="939.538" y1="719.895" x2="1097.08" y2="-44.0098" gradientUnits="userSpaceOnUse">
<stop stop-color="#B35AEA"/>
<stop offset="1" stop-color="#D87D7D"/>
</linearGradient>
<linearGradient id="paint7_linear_1_299" x1="940.239" y1="734.519" x2="1101.25" y2="-46.1801" gradientUnits="userSpaceOnUse">
<stop stop-color="#B35AEA"/>
<stop offset="1" stop-color="#D87D7D"/>
</linearGradient>
<linearGradient id="paint8_linear_1_299" x1="941.269" y1="748.888" x2="1105.73" y2="-48.5606" gradientUnits="userSpaceOnUse">
<stop stop-color="#B35AEA"/>
<stop offset="1" stop-color="#D87D7D"/>
</linearGradient>
<linearGradient id="paint9_linear_1_299" x1="941.407" y1="766.245" x2="1109.9" y2="-50.7311" gradientUnits="userSpaceOnUse">
<stop stop-color="#B35AEA"/>
<stop offset="1" stop-color="#D87D7D"/>
</linearGradient>
<linearGradient id="paint10_linear_1_299" x1="940.779" y1="786.65" x2="1113.93" y2="-52.929" gradientUnits="userSpaceOnUse">
<stop stop-color="#B35AEA"/>
<stop offset="1" stop-color="#D87D7D"/>
</linearGradient>
<linearGradient id="paint11_linear_1_299" x1="937.753" y1="819.352" x2="1118.1" y2="-55.0995" gradientUnits="userSpaceOnUse">
<stop stop-color="#B35AEA"/>
<stop offset="1" stop-color="#D87D7D"/>
</linearGradient>
<linearGradient id="paint12_linear_1_299" x1="935.309" y1="851.898" x2="1122.84" y2="-57.4254" gradientUnits="userSpaceOnUse">
<stop stop-color="#B35AEA"/>
<stop offset="1" stop-color="#D87D7D"/>
</linearGradient>
<linearGradient id="paint13_linear_1_299" x1="932.182" y1="883.753" x2="1126.75" y2="-59.6503" gradientUnits="userSpaceOnUse">
<stop stop-color="#B35AEA"/>
<stop offset="1" stop-color="#D87D7D"/>
</linearGradient>
<linearGradient id="paint14_linear_1_299" x1="929.529" y1="915.981" x2="1131.18" y2="-61.7665" gradientUnits="userSpaceOnUse">
<stop stop-color="#B35AEA"/>
<stop offset="1" stop-color="#D87D7D"/>
</linearGradient>
<linearGradient id="paint15_linear_1_299" x1="926.447" y1="948.947" x2="1135.39" y2="-64.2012" gradientUnits="userSpaceOnUse">
<stop stop-color="#B35AEA"/>
<stop offset="1" stop-color="#D87D7D"/>
</linearGradient>
<linearGradient id="paint16_linear_1_299" x1="923.367" y1="981.913" x2="1139.56" y2="-66.3717" gradientUnits="userSpaceOnUse">
<stop stop-color="#B35AEA"/>
<stop offset="1" stop-color="#D87D7D"/>
</linearGradient>
<linearGradient id="paint17_linear_1_299" x1="920.899" y1="1013.9" x2="1144.12" y2="-68.4605" gradientUnits="userSpaceOnUse">
<stop stop-color="#B35AEA"/>
<stop offset="1" stop-color="#D87D7D"/>
</linearGradient>
<linearGradient id="paint18_linear_1_299" x1="917.927" y1="1046.34" x2="1148.29" y2="-70.6314" gradientUnits="userSpaceOnUse">
<stop stop-color="#B35AEA"/>
<stop offset="1" stop-color="#D87D7D"/>
</linearGradient>
<linearGradient id="paint19_linear_1_299" x1="914.901" y1="1079.04" x2="1152.51" y2="-73.0662" gradientUnits="userSpaceOnUse">
<stop stop-color="#B35AEA"/>
<stop offset="1" stop-color="#D87D7D"/>
</linearGradient>
<linearGradient id="paint20_linear_1_299" x1="912.17" y1="1110.98" x2="1156.8" y2="-75.2092" gradientUnits="userSpaceOnUse">
<stop stop-color="#B35AEA"/>
<stop offset="1" stop-color="#D87D7D"/>
</linearGradient>
<linearGradient id="paint21_linear_1_299" x1="909.221" y1="1143.97" x2="1161.1" y2="-77.3526" gradientUnits="userSpaceOnUse">
<stop stop-color="#B35AEA"/>
<stop offset="1" stop-color="#D87D7D"/>
</linearGradient>
<linearGradient id="paint22_linear_1_299" x1="906.226" y1="1175.86" x2="1165.19" y2="-79.8145" gradientUnits="userSpaceOnUse">
<stop stop-color="#B35AEA"/>
<stop offset="1" stop-color="#D87D7D"/>
</linearGradient>
<linearGradient id="paint23_linear_1_299" x1="903.519" y1="1208.35" x2="1169.62" y2="-81.9308" gradientUnits="userSpaceOnUse">
<stop stop-color="#B35AEA"/>
<stop offset="1" stop-color="#D87D7D"/>
</linearGradient>
<linearGradient id="paint24_linear_1_299" x1="900.679" y1="1240.81" x2="1173.92" y2="-84.0741" gradientUnits="userSpaceOnUse">
<stop stop-color="#B35AEA"/>
<stop offset="1" stop-color="#D87D7D"/>
</linearGradient>
<linearGradient id="paint25_linear_1_299" x1="897.597" y1="1273.78" x2="1178.08" y2="-86.2446" gradientUnits="userSpaceOnUse">
<stop stop-color="#B35AEA"/>
<stop offset="1" stop-color="#D87D7D"/>
</linearGradient>
<linearGradient id="paint26_linear_1_299" x1="895.076" y1="1306.03" x2="1182.7" y2="-88.5977" gradientUnits="userSpaceOnUse">
<stop stop-color="#B35AEA"/>
<stop offset="1" stop-color="#D87D7D"/>
</linearGradient>
<linearGradient id="paint27_linear_1_299" x1="891.653" y1="1338.65" x2="1186.47" y2="-90.8499" gradientUnits="userSpaceOnUse">
<stop stop-color="#B35AEA"/>
<stop offset="1" stop-color="#D87D7D"/>
</linearGradient>
<linearGradient id="paint28_linear_1_299" x1="889.002" y1="1370.88" x2="1190.9" y2="-92.9656" gradientUnits="userSpaceOnUse">
<stop stop-color="#B35AEA"/>
<stop offset="1" stop-color="#D87D7D"/>
</linearGradient>
<linearGradient id="paint29_linear_1_299" x1="886.648" y1="1403.17" x2="1195.68" y2="-95.2844" gradientUnits="userSpaceOnUse">
<stop stop-color="#B35AEA"/>
<stop offset="1" stop-color="#D87D7D"/>
</linearGradient>
<linearGradient id="paint30_linear_1_299" x1="883.489" y1="1435.57" x2="1199.66" y2="-97.493" gradientUnits="userSpaceOnUse">
<stop stop-color="#B35AEA"/>
<stop offset="1" stop-color="#D87D7D"/>
</linearGradient>
<linearGradient id="paint31_linear_1_299" x1="880.902" y1="1468.09" x2="1204.21" y2="-99.5847" gradientUnits="userSpaceOnUse">
<stop stop-color="#B35AEA"/>
<stop offset="1" stop-color="#D87D7D"/>
</linearGradient>
<linearGradient id="paint32_linear_1_299" x1="878.193" y1="1500.03" x2="1208.59" y2="-101.987" gradientUnits="userSpaceOnUse">
<stop stop-color="#B35AEA"/>
<stop offset="1" stop-color="#D87D7D"/>
</linearGradient>
<linearGradient id="paint33_linear_1_299" x1="875.362" y1="1532.77" x2="1212.95" y2="-104.118" gradientUnits="userSpaceOnUse">
<stop stop-color="#B35AEA"/>
<stop offset="1" stop-color="#D87D7D"/>
</linearGradient>
<linearGradient id="paint34_linear_1_299" x1="872.713" y1="1566.1" x2="1217.6" y2="-106.188" gradientUnits="userSpaceOnUse">
<stop stop-color="#B35AEA"/>
<stop offset="1" stop-color="#D87D7D"/>
</linearGradient>
<linearGradient id="paint35_linear_1_299" x1="870.01" y1="1598.32" x2="1221.98" y2="-108.314" gradientUnits="userSpaceOnUse">
<stop stop-color="#B35AEA"/>
<stop offset="1" stop-color="#D87D7D"/>
</linearGradient>
<linearGradient id="paint36_linear_1_299" x1="867.386" y1="1630.55" x2="1226.49" y2="-110.688" gradientUnits="userSpaceOnUse">
<stop stop-color="#B35AEA"/>
<stop offset="1" stop-color="#D87D7D"/>
</linearGradient>
<linearGradient id="paint37_linear_1_299" x1="864.987" y1="1663.11" x2="1231.23" y2="-112.741" gradientUnits="userSpaceOnUse">
<stop stop-color="#B35AEA"/>
<stop offset="1" stop-color="#D87D7D"/>
</linearGradient>
<linearGradient id="paint38_linear_1_299" x1="862.106" y1="1695.56" x2="1235.49" y2="-114.893" gradientUnits="userSpaceOnUse">
<stop stop-color="#B35AEA"/>
<stop offset="1" stop-color="#D87D7D"/>
</linearGradient>
<linearGradient id="paint39_linear_1_299" x1="859.917" y1="1728.16" x2="1240.49" y2="-117.166" gradientUnits="userSpaceOnUse">
<stop stop-color="#B35AEA"/>
<stop offset="1" stop-color="#D87D7D"/>
</linearGradient>
<linearGradient id="paint40_linear_1_299" x1="857.149" y1="1760.37" x2="1244.8" y2="-119.306" gradientUnits="userSpaceOnUse">
<stop stop-color="#B35AEA"/>
<stop offset="1" stop-color="#D87D7D"/>
</linearGradient>
<linearGradient id="paint41_linear_1_299" x1="855.1" y1="1793.27" x2="1249.95" y2="-121.275" gradientUnits="userSpaceOnUse">
<stop stop-color="#B35AEA"/>
<stop offset="1" stop-color="#D87D7D"/>
</linearGradient>
<linearGradient id="paint42_linear_1_299" x1="852.733" y1="1825.01" x2="1254.56" y2="-123.354" gradientUnits="userSpaceOnUse">
<stop stop-color="#B35AEA"/>
<stop offset="1" stop-color="#D87D7D"/>
</linearGradient>
<linearGradient id="paint43_linear_1_299" x1="850.278" y1="1858.1" x2="1259.4" y2="-125.66" gradientUnits="userSpaceOnUse">
<stop stop-color="#B35AEA"/>
<stop offset="1" stop-color="#D87D7D"/>
</linearGradient>
<linearGradient id="paint44_linear_1_299" x1="848.021" y1="1890.41" x2="1264.23" y2="-127.694" gradientUnits="userSpaceOnUse">
<stop stop-color="#B35AEA"/>
<stop offset="1" stop-color="#D87D7D"/>
</linearGradient>
<linearGradient id="paint45_linear_1_299" x1="845.495" y1="1923.49" x2="1268.95" y2="-129.75" gradientUnits="userSpaceOnUse">
<stop stop-color="#B35AEA"/>
<stop offset="1" stop-color="#D87D7D"/>
</linearGradient>
<linearGradient id="paint46_linear_1_299" x1="843.122" y1="1955.78" x2="1273.71" y2="-132.073" gradientUnits="userSpaceOnUse">
<stop stop-color="#B35AEA"/>
<stop offset="1" stop-color="#D87D7D"/>
</linearGradient>
<linearGradient id="paint47_linear_1_299" x1="840.822" y1="1988.36" x2="1278.55" y2="-134.105" gradientUnits="userSpaceOnUse">
<stop stop-color="#B35AEA"/>
<stop offset="1" stop-color="#D87D7D"/>
</linearGradient>
<linearGradient id="paint48_linear_1_299" x1="838.671" y1="2020.69" x2="1283.48" y2="-136.117" gradientUnits="userSpaceOnUse">
<stop stop-color="#B35AEA"/>
<stop offset="1" stop-color="#D87D7D"/>
</linearGradient>
<linearGradient id="paint49_linear_1_299" x1="836.36" y1="2053.26" x2="1288.36" y2="-138.415" gradientUnits="userSpaceOnUse">
<stop stop-color="#B35AEA"/>
<stop offset="1" stop-color="#D87D7D"/>
</linearGradient>
<linearGradient id="paint50_linear_1_299" x1="834.187" y1="2086.14" x2="1293.38" y2="-140.41" gradientUnits="userSpaceOnUse">
<stop stop-color="#B35AEA"/>
<stop offset="1" stop-color="#D87D7D"/>
</linearGradient>
</defs>
</svg>
