<svg width="123" height="39" viewBox="0 0 123 39" fill="none" xmlns="http://www.w3.org/2000/svg">
<g id="navi logo">
<g id="Group 4">
<path id="Path 59" d="M14.4202 32.1391C6.81434 27.7372 1.29199 24.5422 0.950656 24.3582C0.812193 24.2887 0.696461 24.1812 0.61703 24.0482C0.543992 23.9082 0.510847 23.7508 0.521203 23.5933C0.538951 22.7355 0.527125 21.8777 0.527125 21.0608L0.52059 20.8064L17.3473 30.5159L14.4202 32.1391Z" fill="white" fill-opacity="0.75"/>
<path id="Path 60" d="M25.3598 26.0704C25.3598 27.0169 25.355 27.9499 25.3598 28.8828C25.3598 29.2472 25.0811 29.3483 24.8392 29.4897L13.384 36.1206C13.2144 36.2376 13.0138 36.3013 12.8078 36.3034C12.6704 36.2924 12.5384 36.2453 12.4251 36.1668C12.0908 35.9526 11.1638 35.3977 9.90497 34.6459L25.3598 26.0704Z" fill="white" fill-opacity="0.75"/>
<path id="Path 61" d="M12.7618 33.0596L9.90513 34.6444C7.20934 33.1004 4.49815 31.5836 1.8272 29.9988C1.40362 29.7942 1.0503 29.4685 0.812063 29.0629C0.635975 28.6407 0.555202 28.1848 0.575456 27.7278C0.544447 27.1563 0.545437 26.5836 0.578416 26.0122L12.7618 33.0596Z" fill="white" fill-opacity="0.75"/>
<path id="Path 62" d="M25.3622 31.0632C25.3622 32.16 25.3451 33.0426 25.3699 33.9241C25.3737 34.0814 25.3282 34.236 25.2399 34.3662C25.1515 34.4965 25.0247 34.5958 24.8772 34.6505C22.812 35.8337 20.7616 37.0399 18.6828 38.1999C17.5896 38.8087 15.9474 38.3863 14.8482 37.5463C14.7453 37.4676 14.6631 37.396 14.6075 37.3451L25.3622 31.0632Z" fill="white" fill-opacity="0.75"/>
<path id="Path 63" d="M7.90595 10.7716C15.5159 6.37684 21.0388 3.18591 21.3701 2.98181C21.4996 2.89664 21.6506 2.85007 21.8055 2.84753C21.963 2.85399 22.1157 2.90371 22.2468 2.99127C22.9804 3.43436 23.7293 3.85143 24.4392 4.26021L24.6634 4.38147L7.85211 14.1182C7.86907 13.0024 7.88702 11.8869 7.90595 10.7716Z" fill="white" fill-opacity="0.75"/>
<path id="Path 64" d="M7.70584 23.2799C6.88533 22.8066 6.07964 22.3381 5.26741 21.8785C4.95033 21.701 5.00179 21.4052 5.00119 21.1248C4.99173 16.7121 4.98224 12.2993 4.97278 7.88661C4.95571 7.68096 5.00064 7.47492 5.10175 7.29504C5.17989 7.18157 5.28663 7.09075 5.41115 7.03178C5.76609 6.84899 6.70492 6.3219 7.98685 5.60669C7.89339 11.498 7.7997 17.389 7.70584 23.2799Z" fill="white" fill-opacity="0.75"/>
<path id="Path 65" d="M7.93475 8.87467C7.95211 7.78578 7.96947 6.6969 7.98682 5.60801C10.6702 4.0433 13.3376 2.44961 16.044 0.926314C16.4324 0.660651 16.8909 0.516498 17.3614 0.512207C17.8149 0.570102 18.2501 0.727476 18.6357 0.973054C19.1462 1.23105 19.642 1.51741 20.1205 1.83082L7.93475 8.87467Z" fill="white" fill-opacity="0.75"/>
<path id="Path 66" d="M3.37891 20.79C2.42826 20.2428 1.67226 19.7843 0.894343 19.3702C0.756262 19.2949 0.645053 19.1784 0.576244 19.037C0.507434 18.8956 0.484417 18.7362 0.510385 18.5811C0.516892 16.2018 0.493852 13.8219 0.527572 11.4426C0.545319 10.1914 1.7308 8.97928 3.00741 8.44628C3.12573 8.39718 3.23044 8.36108 3.3032 8.33801C3.32765 12.4881 3.35289 16.6388 3.37891 20.79Z" fill="white" fill-opacity="0.75"/>
<path id="Path 67" d="M29.6394 15.8082C29.6536 24.596 29.6636 30.9761 29.6766 31.3636C29.6859 31.5182 29.6511 31.6723 29.5761 31.8078C29.4918 31.9412 29.3725 32.0489 29.2312 32.119C28.4811 32.5331 27.7464 32.975 27.0383 33.3862L26.8211 33.5199C26.8022 27.0441 26.7825 20.5684 26.762 14.0927L29.6394 15.8082Z" fill="white" fill-opacity="0.75"/>
<path id="Path 68" d="M18.8973 9.39626C19.7155 8.923 20.5248 8.45626 21.3281 7.98182C21.6416 7.79607 21.8718 7.98832 22.1143 8.12675L33.6032 14.7033C33.7894 14.7912 33.9451 14.9327 34.0504 15.1097C34.1097 15.2342 34.135 15.3721 34.1238 15.5096C34.1066 15.9065 34.0948 16.9855 34.0747 18.4526L18.8973 9.39626Z" fill="white" fill-opacity="0.75"/>
<path id="Path 69" d="M31.2691 16.7802L34.0743 18.4543C34.0926 21.5606 34.1435 24.6658 34.1146 27.7727C34.1509 28.2416 34.0469 28.7107 33.8158 29.1203C33.5395 29.4851 33.186 29.7842 32.7806 29.9964C32.302 30.3098 31.8062 30.5962 31.2957 30.8542L31.2691 16.7802Z" fill="white" fill-opacity="0.75"/>
<path id="Path 70" d="M23.2147 6.88862C24.1612 6.33786 24.935 5.90957 25.6839 5.44518C25.8178 5.36265 25.9742 5.324 26.1312 5.3346C26.2881 5.34521 26.4379 5.40455 26.5595 5.50434C28.6181 6.69636 30.6934 7.86293 32.7384 9.07861C33.8139 9.7181 34.2735 11.3502 34.099 12.7227C34.0825 12.8517 34.0623 12.9593 34.0458 13.0321L23.2147 6.88862Z" fill="white" fill-opacity="0.75"/>
</g>
<path id="Path 71" d="M115.946 14.0804L115.934 20.3014L113.908 20.2895C113.912 17.0161 113.916 13.7428 113.92 10.4694L115.85 10.4333L120.346 16.4029L120.286 10.4452H122.492L122.5 20.254L120.548 20.2659L115.946 14.0804Z" fill="white" fill-opacity="0.75"/>
<path id="Path 72" d="M84.7544 10.4967L86.9722 10.4476V14.3916H90.8689V10.4873L93.1234 10.4512C93.1072 13.7115 93.0909 16.9719 93.0743 20.2322L90.8932 20.2441C90.8813 18.9454 90.8693 17.6465 90.8571 16.3474H86.9338C86.9377 17.6579 86.9416 18.9684 86.9456 20.279L84.7521 20.2547L84.7544 10.4967Z" fill="white" fill-opacity="0.75"/>
<path id="Path 73" d="M78.4527 20.2552C75.7628 20.2475 73.9792 18.9537 73.29 16.7975C72.9557 15.764 72.9608 14.6507 73.3047 13.6204C73.6487 12.5902 74.3133 11.697 75.2014 11.0716C76.1243 10.4581 77.2115 10.1388 78.3196 10.1559C79.4277 10.173 80.5046 10.5257 81.4082 11.1675C81.6319 11.3346 81.8386 11.5235 82.0252 11.7312L80.7072 13.2817C80.3955 12.9417 80.018 12.6684 79.5976 12.4785C79.1773 12.2886 78.7228 12.1859 78.2616 12.1767C77.6604 12.1902 77.0748 12.3707 76.5703 12.6979C76.0596 13.0767 75.6778 13.6034 75.4767 14.2067C75.2757 14.8099 75.2651 15.4604 75.4463 16.0698C75.5825 16.5563 75.8331 17.0032 76.1772 17.3731C76.5214 17.7429 76.9491 18.0251 77.4245 18.1959C77.9984 18.3653 78.609 18.3646 79.1825 18.194C79.756 18.0234 80.2677 17.6901 80.6557 17.2346L82.0103 18.5769C81.871 18.7459 81.7192 18.9041 81.5561 19.0502C80.6918 19.7982 79.5952 20.224 78.4527 20.2552Z" fill="white" fill-opacity="0.75"/>
<path id="Path 74" d="M53.3724 10.4598H60.7304V12.402L55.576 12.4262L55.5878 14.4038L60.2387 14.3796C60.2309 15.0307 60.2228 15.6814 60.2145 16.3318L55.5878 16.3809L55.576 20.2776L53.3824 20.2533L53.3724 10.4598Z" fill="white" fill-opacity="0.75"/>
<path id="Path 75" d="M63.5377 10.4598H70.8981V12.402L65.7437 12.4262L65.7555 14.4038L70.4065 14.3796C70.3986 15.0307 70.3905 15.6814 70.3822 16.3318L65.7549 16.3809L65.7431 20.2776L63.5496 20.2533L63.5377 10.4598Z" fill="white" fill-opacity="0.75"/>
<path id="Path 76" d="M110.477 20.2657L108.296 20.2776C108.292 17.0129 108.288 13.7484 108.284 10.4841L110.465 10.4598C110.47 13.7289 110.474 16.9975 110.477 20.2657Z" fill="white" fill-opacity="0.75"/>
<path id="Path 77" d="M95.7932 31.4162C95.3395 31.3682 94.9024 31.2188 94.5142 30.9791C94.3749 30.8967 94.242 30.8039 94.1166 30.7016L94.6041 29.7906C94.7477 29.9028 94.9031 29.9992 95.0673 30.0781C95.41 30.2387 95.7839 30.3217 96.1623 30.3212C96.6143 30.336 96.7503 30.2426 96.8095 30.1899C96.888 30.1185 96.946 30.0274 96.9775 29.9261C97.0025 29.8287 96.9998 29.7262 96.9698 29.6303C96.9219 29.5387 96.8549 29.4584 96.7732 29.395C96.6916 29.3316 96.5972 29.2866 96.4965 29.2629C95.8701 29.0298 95.6879 29.0931 95.2749 28.9399C94.8667 28.8183 94.5169 28.5517 94.2912 28.1904C94.1678 27.9521 94.1133 27.6842 94.1338 27.4166C94.1411 27.047 94.2756 26.6912 94.5148 26.4093C94.7539 26.1273 95.083 25.9365 95.4465 25.8691C96.123 25.6883 96.843 25.7743 97.4578 26.1092C97.7147 26.2569 97.9442 26.4476 98.1364 26.673L97.4573 27.4574C97.3067 27.2682 97.1154 27.1153 96.8976 27.0102C96.714 26.9227 96.5147 26.8729 96.3115 26.8637C96.1083 26.8544 95.9053 26.8859 95.7145 26.9564C95.639 26.9805 95.5691 27.0197 95.5092 27.0716C95.4492 27.1234 95.4003 27.1869 95.3655 27.2581C95.3449 27.3253 95.3379 27.3959 95.3448 27.4659C95.3517 27.5359 95.3724 27.6038 95.4057 27.6657C95.592 28.0206 96.0996 27.8863 96.8255 28.1389C97.1032 28.2113 97.3633 28.3392 97.5903 28.5149C97.8172 28.6906 98.0062 28.9104 98.1459 29.1612C98.2624 29.4608 98.281 29.7897 98.1991 30.1006C97.9619 31.1713 97.0994 31.4009 95.7932 31.4162Z" fill="white" fill-opacity="0.75"/>
<path id="Path 78" d="M64.4523 31.5336C64.4255 29.7383 64.3989 27.9439 64.3724 26.1503H65.6189C65.624 27.546 65.6293 28.9417 65.6348 30.3374L68.32 30.3214C68.3093 30.7316 68.2987 31.1418 68.288 31.5519L64.4523 31.5336Z" fill="white" fill-opacity="0.75"/>
<path id="Path 79" d="M45.4021 10.1701C44.7185 10.157 44.0391 10.28 43.4036 10.5321C42.7681 10.7842 42.1892 11.1603 41.7005 11.6385C41.2119 12.1166 40.8233 12.6873 40.5575 13.3172C40.2917 13.9471 40.154 14.6237 40.1524 15.3074C40.1354 16.3427 40.4266 17.3598 40.9889 18.2293C41.5512 19.0988 42.3593 19.7816 43.3105 20.1908C44.2617 20.6001 45.313 20.7173 46.331 20.5278C47.349 20.3382 48.2877 19.8503 49.0277 19.126C49.7678 18.4018 50.2759 17.4739 50.4875 16.4603C50.6991 15.4466 50.6046 14.3929 50.216 13.4331C49.8274 12.4733 49.1623 11.6506 48.3052 11.0697C47.448 10.4887 46.4375 10.1756 45.4021 10.1701ZM45.4937 18.2504C45.0966 18.2693 44.6999 18.2053 44.3288 18.0628C43.9577 17.9202 43.6203 17.702 43.338 17.4221C43.0556 17.1422 42.8346 16.8067 42.6887 16.4369C42.5429 16.067 42.4756 15.6709 42.4909 15.2736C42.4587 14.8876 42.5064 14.499 42.6308 14.1322C42.7552 13.7653 42.9538 13.428 43.2142 13.1411C43.4747 12.8543 43.7913 12.6242 44.1445 12.465C44.4976 12.3058 44.8798 12.221 45.2672 12.2158C45.6642 12.199 46.0605 12.2639 46.4313 12.4067C46.8022 12.5495 47.1398 12.767 47.4231 13.0457C47.7063 13.3244 47.9292 13.6584 48.078 14.0269C48.2267 14.3954 48.2981 14.7906 48.2877 15.1879C48.3154 15.5747 48.2641 15.9631 48.137 16.3294C48.0098 16.6958 47.8095 17.0324 47.5481 17.3189C47.2868 17.6053 46.9699 17.8357 46.6167 17.9958C46.2635 18.156 45.8814 18.2426 45.4937 18.2504Z" fill="white" fill-opacity="0.75"/>
<path id="Path 80" d="M101.651 10.2191L99.6942 10.2238L95.2917 20.2717L97.7308 20.2658L98.6637 18.0521L102.634 18.0663L103.587 20.2415L106.056 20.2658L101.651 10.2191ZM99.4392 16.1058L100.654 12.7854L101.914 16.1058H99.4392Z" fill="white" fill-opacity="0.75"/>
<path id="Path 81" d="M88.8098 29.3277C88.6687 29.0176 88.4269 28.7643 88.1236 28.6089C88.3221 28.4545 88.4764 28.2504 88.5708 28.0174C88.6493 27.7848 88.673 27.5373 88.6403 27.294C88.6076 27.0508 88.5192 26.8183 88.3821 26.6148C88.2329 26.4057 88.0391 26.2324 87.8148 26.1074C87.5904 25.9823 87.3411 25.9087 87.0848 25.8918H84.2388C84.249 27.7778 84.2596 29.6637 84.2707 31.5496L85.8212 31.5337L87.5634 31.5496C87.8419 31.4801 88.1007 31.3474 88.3196 31.1617C88.5385 30.976 88.7117 30.7423 88.8258 30.4789C88.9703 30.1077 88.9646 29.6948 88.8098 29.3277ZM85.5012 26.8827L86.892 26.8987C87.0096 26.9529 87.1092 27.0396 87.179 27.1486C87.2488 27.2577 87.286 27.3845 87.286 27.5139C87.286 27.6434 87.2488 27.7702 87.179 27.8792C87.1092 27.9883 87.0096 28.075 86.892 28.1292H85.4852C85.4907 27.7143 85.496 27.2988 85.5012 26.8827ZM87.1812 30.5386L85.5171 30.5428L85.5017 29.1064L86.9896 29.0946C87.1043 29.0924 87.2183 29.1149 87.3237 29.1604C87.4291 29.2059 87.5235 29.2734 87.6007 29.3585C87.7142 29.5042 87.7716 29.6859 87.7626 29.8704C87.7536 30.0549 87.6787 30.2301 87.5516 30.3641C87.4489 30.4588 87.3196 30.5197 87.1812 30.5386Z" fill="white" fill-opacity="0.75"/>
<path id="Path 82" d="M76.6643 26.0042H75.5859L73.1604 31.5424L74.505 31.5389L75.0197 30.3191L77.2085 30.3268L77.7338 31.5259L79.0945 31.5389C78.2836 29.6948 77.4736 27.8499 76.6643 26.0042ZM75.4456 29.2489L76.1153 27.4186L76.8098 29.2489H75.4456Z" fill="white" fill-opacity="0.75"/>
</g>
</svg>
