<svg width="155" height="19" viewBox="0 0 155 19" fill="none" xmlns="http://www.w3.org/2000/svg">
<g id="Group 56">
<path id="Vector" d="M56.687 14.7965H54.9387L53.8331 12.6368H47.3539L46.2484 14.7965H44.5L49.5908 5.18062H51.5962L56.687 14.7965ZM53.0618 11.197L50.6192 6.5433L48.1253 11.197H53.0618ZM76.2787 14.7965H74.299L66.9457 6.90325V14.7965H65.3516V5.18062H67.3313L74.6846 13.0739V5.18062H76.2787V14.7965ZM95.7676 6.59472V5.15491H84.969V6.59472H89.5713V8.03453H86.5631V9.47434H89.5713V14.7965H91.1654V9.47434H94.1478V8.03453H91.1396V6.59472H95.7676ZM114.511 6.59472H106.026V9.24294H111.657V10.6828H106.026V13.3567H114.511V14.7965H104.432V5.18062H114.511V6.59472ZM154.646 14.7965H152.897L151.792 12.6368H145.313L144.207 14.7965H142.459L147.549 5.18062H149.555L154.646 14.7965ZM150.995 11.197L148.552 6.5433L146.058 11.197H150.995ZM34.9098 5.15491H27.068V14.7965H28.6621V11.1198H34.9098C36.5553 11.1198 37.8923 9.78288 37.8923 8.13738C37.8923 6.49188 36.5553 5.15491 34.9098 5.15491ZM34.9098 9.68003H28.6621V6.59472H34.9098C35.7583 6.59472 36.4525 7.28892 36.4525 8.13738C36.4525 8.98584 35.7583 9.68003 34.9098 9.68003ZM134.128 14.7965L131.583 11.0684C132.971 10.8113 134.051 9.6029 134.051 8.13738C134.051 6.49188 132.714 5.15491 131.069 5.15491H123.227V14.7965H124.821V11.1198H129.68L132.277 14.7965H134.128ZM124.821 6.59472H131.069C131.917 6.59472 132.611 7.28892 132.611 8.13738C132.611 8.98584 131.917 9.68003 131.069 9.68003H124.821V6.59472Z" fill="white" fill-opacity="0.75"/>
<path id="Vector_2" d="M18.9692 0.192627H0.354492V18.8074H18.9692V0.192627Z" fill="#15182B"/>
<path id="Vector_3" d="M18.9949 0.192627H0.354492V18.8074H18.9692V0.192627H18.9949ZM6.75652 11.7883H4.98246V3.38079H6.75652V11.7883ZM10.5617 15.5935H8.78768V3.38079H10.5617V15.5935ZM14.3927 11.7883H12.6186V3.38079H14.3927V11.7883Z" fill="white" fill-opacity="0.75"/>
</g>
</svg>
