<svg width="74" height="31" viewBox="0 0 74 31" fill="none" xmlns="http://www.w3.org/2000/svg">
<g id="stripe 1" clip-path="url(#clip0_1_441)">
<path id="Vector" fill-rule="evenodd" clip-rule="evenodd" d="M73.3794 17.6847H63.4867C63.7199 20.0536 65.4505 20.8145 67.4143 20.8145C69.4272 20.8145 71.0473 20.3604 72.3852 19.6485V23.7234C70.6874 24.7003 68.7448 25.1689 66.7884 25.0735C61.8666 25.0735 58.4054 22.0051 58.4054 15.8928C58.4054 10.7501 61.3388 6.66292 66.1378 6.66292C70.9492 6.66292 73.453 10.6887 73.453 15.8682C73.453 16.3592 73.4039 17.4147 73.3794 17.6847ZM66.1133 10.7869C64.8491 10.7869 63.4499 11.6829 63.4499 13.9535H68.6662C68.6662 11.6829 67.353 10.7869 66.1133 10.7869ZM50.4397 25.0735C48.6723 25.0735 47.5922 24.3371 46.8804 23.7971L46.8558 29.4798L41.799 30.5476V6.99431H46.4139L46.5121 8.24623C47.5825 7.23093 49.0012 6.66433 50.4766 6.66292C54.0359 6.66292 57.3744 9.85409 57.3744 15.7455C57.3744 22.1647 54.0605 25.0735 50.4397 25.0735ZM49.2737 11.1428C48.1077 11.1428 47.3836 11.5601 46.8558 12.137L46.8804 19.6485C47.3713 20.1886 48.0832 20.6059 49.2737 20.6059C51.1393 20.6059 52.3913 18.5807 52.3913 15.8559C52.3913 13.2171 51.1148 11.1428 49.2737 11.1428ZM34.8398 6.99431H39.9089V24.7176H34.8398V6.99431ZM34.8398 1.22565L39.9089 0.157837V4.28181L34.8398 5.3619V1.23793V1.22565ZM29.5376 12.7016V24.7176H24.4808V6.99431H29.0221L29.1693 8.49171C30.3967 6.31925 32.9374 6.76111 33.6124 6.99431V11.6461C32.9742 11.4374 30.8018 11.1183 29.5376 12.7016ZM19.0435 18.4948C19.0435 21.4773 22.2347 20.5568 22.8729 20.2868V24.4107C22.1979 24.779 20.9828 25.0735 19.3258 25.0735C18.6352 25.0937 17.9477 24.9731 17.3052 24.7192C16.6627 24.4653 16.0785 24.0833 15.5883 23.5965C15.098 23.1097 14.7119 22.5282 14.4535 21.8875C14.195 21.2468 14.0696 20.5602 14.0849 19.8695L14.0972 3.70495L19.0312 2.64941V6.99431H22.8852V11.3269H19.0435V18.5071V18.4948ZM13.0171 19.354C13.0171 22.9993 10.1819 25.0735 5.98425 25.0735C4.10062 25.0721 2.23738 24.6836 0.510163 23.9321V19.1085C2.20394 20.029 4.31502 20.7164 5.98425 20.7164C7.11343 20.7164 7.86213 20.4218 7.86213 19.489C7.86213 17.0588 0.178772 17.967 0.178772 12.3702C0.178772 8.79855 2.97718 6.66292 7.07661 6.66292C8.74584 6.66292 10.4151 6.90839 12.0966 7.58345V12.3457C10.5427 11.5278 8.81991 11.0824 7.06434 11.0446C6.0088 11.0446 5.29692 11.3515 5.29692 12.1493C5.29692 14.4199 13.0171 13.3398 13.0171 19.3662V19.354Z" fill="white" fill-opacity="0.75"/>
</g>
<defs>
<clipPath id="clip0_1_441">
<rect width="73.6424" height="30.6843" fill="white" transform="translate(0.178772 0.157837)"/>
</clipPath>
</defs>
</svg>
