<svg width="76" height="25" viewBox="0 0 76 25" fill="none" xmlns="http://www.w3.org/2000/svg">
<g id="Layer 2">
<g id="Layer 1">
<path id="Vector" d="M11.6842 11.1849H7.07895V12.5H11.6842V17.7638H4.44737L1.8158 15.1322V1.3158H7.07895V5.92106H11.6842V11.1849Z" fill="black"/>
<path id="Vector_2" d="M31.4211 17.7638H15.6316L13 15.1322V5.92102H18.2632V12.5H19.5789V5.92102H24.8421V12.5H26.1579V5.92102H31.4211V17.7638Z" fill="black"/>
<path id="Vector_3" d="M38 5.92102H32.7368V17.7631H38V5.92102Z" fill="black"/>
<path id="Vector_4" d="M38 1.3158H32.7368V4.60527H38V1.3158Z" fill="black"/>
<path id="Vector_5" d="M49.1842 11.1849H44.579V12.5H49.1842V17.7638H41.9474L39.3158 15.1322V1.3158H44.579V5.92106H49.1842V11.1849Z" fill="black"/>
<path id="Vector_6" d="M61.0263 11.1848H55.7632V12.5H61.0263V17.7638H53.1316L50.5 15.1322V8.55326L53.1316 5.92102H61.0263V11.1848Z" fill="black"/>
<path id="Vector_7" d="M74.1843 17.7638H68.9211V11.1849H67.6053V17.7638H62.3422V1.3158H67.6053V5.92106H71.5527L74.1843 8.5533V17.7638Z" fill="black"/>
<path id="Vector_8" d="M72.2105 4.60526H68.9211V0H61.698L58.3763 4.60526H52.4737L50.5 6.57895V4.60526H45.8947V0H31.4211V4.60526H11.0592L7.73684 0H0.5V15.7895L9.71053 25H18.9211V22.3684L21.5526 25H39.3158V22.3684L41.9474 25H50.5V22.3684L53.1316 25H69.5789L75.5 19.0789V7.89474L72.2105 4.60526ZM11.6842 11.1842H7.07895V12.5H11.6842V17.7632H4.44737L1.81579 15.1316V1.31579H7.07895V5.92105H11.6842V11.1842ZM31.4211 17.7632H15.6316L13 15.1316V5.92105H18.2632V12.5H19.5789V5.92105H24.8421V12.5H26.1579V5.92105H31.4211V17.7632ZM38 17.7632H32.7368V5.92105H38V17.7632ZM38 4.60526H32.7368V1.31579H38V4.60526ZM49.1842 11.1842H44.5789V12.5H49.1842V17.7632H41.9474L39.3158 15.1316V1.31579H44.5789V5.92105H49.1842V11.1842ZM61.0263 11.1842H55.7632V12.5H61.0263V17.7632H53.1316L50.5 15.1316V8.55263L53.1316 5.92105H61.0263V11.1842ZM74.1842 17.7632H68.9211V11.1842H67.6053V17.7632H62.3421V1.31579H67.6053V5.92105H71.5526L74.1842 8.55263V17.7632Z" fill="white" fill-opacity="0.75"/>
</g>
</g>
</svg>
